G75*
%MOIN*%
%OFA0B0*%
%FSLAX24Y24*%
%IPPOS*%
%LPD*%
%AMOC8*
5,1,8,0,0,1.08239X$1,22.5*
%
%ADD10R,0.0454X0.0493*%
%ADD11R,0.0320X0.0926*%
%ADD12C,0.0560*%
%ADD13C,0.0532*%
%ADD14OC8,0.0660*%
%ADD15R,0.0493X0.0454*%
%ADD16R,0.0532X0.0532*%
%ADD17R,0.0651X0.0690*%
%ADD18R,0.0375X0.0847*%
%ADD19R,0.0651X0.0651*%
%ADD20OC8,0.0651*%
D10*
X003050Y002415D03*
X003050Y003085D03*
X010450Y003315D03*
X010450Y002735D03*
X010450Y002065D03*
X010450Y003985D03*
D11*
X009750Y003381D03*
X009250Y003381D03*
X008750Y003381D03*
X008250Y003381D03*
X007750Y003381D03*
X007250Y003381D03*
X006750Y003381D03*
X006750Y001019D03*
X007250Y001019D03*
X007750Y001019D03*
X008250Y001019D03*
X008750Y001019D03*
X009250Y001019D03*
X009750Y001019D03*
D12*
X004550Y001150D03*
X005550Y001150D03*
X005550Y003150D03*
X004550Y003150D03*
D13*
X004550Y002150D03*
X005550Y002150D03*
D14*
X016050Y001850D03*
X016050Y000850D03*
X016050Y002850D03*
D15*
X013685Y000850D03*
X013015Y000850D03*
D16*
X013344Y001931D03*
X012556Y001931D03*
D17*
X012950Y003241D03*
D18*
X009433Y004600D03*
X009000Y004600D03*
X008567Y004600D03*
D19*
X015950Y005150D03*
D20*
X014950Y005150D03*
X013950Y005150D03*
X012950Y005150D03*
X011950Y005150D03*
X010950Y005150D03*
X005950Y005150D03*
X004950Y005150D03*
X003950Y005150D03*
X002950Y005150D03*
X001950Y005150D03*
X000950Y005150D03*
M02*
