%
M48
M72
T01C0.0130
T02C0.0394
T03C0.0400
%
T01
X5750Y2246
X6350Y1746
X8150Y2346
X8400Y1996
X9550Y2146
X8450Y2846
X7250Y3146
X5950Y3546
X8050Y4446
X10050Y4446
X13501Y2195
X10350Y1246
X3450Y4346
T02
X2950Y5546
X1950Y5546
X950Y5546
X3950Y5546
X4950Y5546
X5950Y5546
X10950Y5546
X11950Y5546
X12950Y5546
X13950Y5546
X14950Y5546
X15950Y5546
T03
X3750Y1546
X4750Y1546
X4750Y2546
X3750Y2546
X3750Y3546
X4750Y3546
X16050Y3246
X16050Y2246
X16050Y1246
M30
