G75*
%MOIN*%
%OFA0B0*%
%FSLAX24Y24*%
%IPPOS*%
%LPD*%
%AMOC8*
5,1,8,0,0,1.08239X$1,22.5*
%
%ADD10R,0.0394X0.0433*%
%ADD11R,0.0260X0.0866*%
%ADD12R,0.0660X0.0660*%
%ADD13OC8,0.0660*%
%ADD14OC8,0.0600*%
%ADD15R,0.0394X0.0551*%
%ADD16R,0.0433X0.0394*%
%ADD17R,0.0472X0.0472*%
%ADD18R,0.0591X0.0630*%
%ADD19R,0.0315X0.0787*%
%ADD20R,0.0591X0.0591*%
%ADD21OC8,0.0591*%
%ADD22C,0.0100*%
%ADD23C,0.0270*%
%ADD24C,0.0120*%
%ADD25C,0.0160*%
D10*
X002450Y001912D03*
X002450Y002581D03*
X010450Y002312D03*
X010450Y002981D03*
X010450Y003712D03*
X010450Y004381D03*
D11*
X009750Y003727D03*
X009250Y003727D03*
X008750Y003727D03*
X008250Y003727D03*
X007750Y003727D03*
X007250Y003727D03*
X006750Y003727D03*
X006750Y001365D03*
X007250Y001365D03*
X007750Y001365D03*
X008250Y001365D03*
X008750Y001365D03*
X009250Y001365D03*
X009750Y001365D03*
D12*
X004750Y001546D03*
D13*
X003750Y001546D03*
X003750Y002546D03*
X004750Y002546D03*
X004750Y003546D03*
X003750Y003546D03*
D14*
X016050Y003246D03*
X016050Y002246D03*
X016050Y001246D03*
D15*
X001424Y004079D03*
X000676Y004079D03*
X001050Y003213D03*
D16*
X000715Y002146D03*
X001385Y002146D03*
X013015Y001246D03*
X013685Y001246D03*
D17*
X013044Y002328D03*
X012256Y002328D03*
D18*
X012650Y003637D03*
D19*
X009433Y004996D03*
X009000Y004996D03*
X008567Y004996D03*
D20*
X015950Y005546D03*
D21*
X014950Y005546D03*
X013950Y005546D03*
X012950Y005546D03*
X011950Y005546D03*
X010950Y005546D03*
X005950Y005546D03*
X004950Y005546D03*
X003950Y005546D03*
X002950Y005546D03*
X001950Y005546D03*
X000950Y005546D03*
D22*
X000300Y005996D02*
X000300Y000696D01*
X016700Y000696D01*
X016700Y005996D01*
X000300Y005996D01*
X000300Y005964D02*
X000738Y005964D01*
X000766Y005992D02*
X000505Y005731D01*
X000505Y005362D01*
X000766Y005101D01*
X000852Y005101D01*
X001089Y004429D01*
X001077Y004417D01*
X001077Y003742D01*
X001165Y003654D01*
X001683Y003654D01*
X001771Y003742D01*
X001771Y004417D01*
X001683Y004505D01*
X001486Y004505D01*
X001239Y005205D01*
X001395Y005362D01*
X001395Y005731D01*
X001134Y005992D01*
X000766Y005992D01*
X000639Y005865D02*
X000300Y005865D01*
X000300Y005767D02*
X000541Y005767D01*
X000505Y005668D02*
X000300Y005668D01*
X000300Y005570D02*
X000505Y005570D01*
X000505Y005471D02*
X000300Y005471D01*
X000300Y005373D02*
X000505Y005373D01*
X000592Y005274D02*
X000300Y005274D01*
X000300Y005176D02*
X000691Y005176D01*
X000860Y005077D02*
X000300Y005077D01*
X000300Y004979D02*
X000895Y004979D01*
X000929Y004880D02*
X000300Y004880D01*
X000300Y004782D02*
X000964Y004782D01*
X000999Y004683D02*
X000300Y004683D01*
X000300Y004585D02*
X001034Y004585D01*
X001068Y004486D02*
X000945Y004486D01*
X000931Y004495D02*
X000893Y004505D01*
X000724Y004505D01*
X000724Y004128D01*
X000628Y004128D01*
X000628Y004505D01*
X000459Y004505D01*
X000421Y004495D01*
X000387Y004475D01*
X000359Y004447D01*
X000339Y004413D01*
X000329Y004375D01*
X000329Y004128D01*
X000628Y004128D01*
X000628Y004031D01*
X000724Y004031D01*
X000724Y003654D01*
X000893Y003654D01*
X000931Y003664D01*
X000965Y003684D01*
X000993Y003712D01*
X001013Y003746D01*
X001023Y003784D01*
X001023Y004031D01*
X000724Y004031D01*
X000724Y004128D01*
X001023Y004128D01*
X001023Y004375D01*
X001013Y004413D01*
X000993Y004447D01*
X000965Y004475D01*
X000931Y004495D01*
X000724Y004486D02*
X000628Y004486D01*
X000407Y004486D02*
X000300Y004486D01*
X000300Y004388D02*
X000333Y004388D01*
X000329Y004289D02*
X000300Y004289D01*
X000300Y004191D02*
X000329Y004191D01*
X000300Y004092D02*
X000628Y004092D01*
X000628Y004031D02*
X000329Y004031D01*
X000329Y003784D01*
X000339Y003746D01*
X000359Y003712D01*
X000387Y003684D01*
X000421Y003664D01*
X000459Y003654D01*
X000628Y003654D01*
X000628Y004031D01*
X000628Y003994D02*
X000724Y003994D01*
X000724Y004092D02*
X001077Y004092D01*
X001077Y003994D02*
X001023Y003994D01*
X001023Y003895D02*
X001077Y003895D01*
X001077Y003797D02*
X001023Y003797D01*
X000724Y003797D02*
X000628Y003797D01*
X000628Y003895D02*
X000724Y003895D01*
X000724Y003698D02*
X000628Y003698D01*
X000752Y003600D02*
X000300Y003600D01*
X000300Y003698D02*
X000372Y003698D01*
X000329Y003797D02*
X000300Y003797D01*
X000300Y003895D02*
X000329Y003895D01*
X000329Y003994D02*
X000300Y003994D01*
X000628Y004191D02*
X000724Y004191D01*
X001023Y004191D02*
X001077Y004191D01*
X001077Y004289D02*
X001023Y004289D01*
X001019Y004388D02*
X001077Y004388D01*
X000724Y004388D02*
X000628Y004388D01*
X000628Y004289D02*
X000724Y004289D01*
X001424Y004079D02*
X000917Y005517D01*
X000946Y005546D01*
X000950Y005546D01*
X001395Y005570D02*
X001505Y005570D01*
X001505Y005668D02*
X001395Y005668D01*
X001359Y005767D02*
X001541Y005767D01*
X001505Y005731D02*
X001505Y005362D01*
X001750Y005117D01*
X001750Y004863D01*
X001867Y004746D01*
X002250Y004363D01*
X002250Y002947D01*
X002191Y002947D01*
X002103Y002860D01*
X002103Y002302D01*
X002159Y002246D01*
X002103Y002190D01*
X002103Y001633D01*
X002191Y001545D01*
X002268Y001545D01*
X002367Y001446D01*
X002467Y001346D01*
X003271Y001346D01*
X003471Y001146D01*
X002033Y001146D01*
X001585Y001594D01*
X001585Y001799D01*
X001663Y001799D01*
X001751Y001887D01*
X001751Y002405D01*
X001672Y002485D01*
X001833Y002646D01*
X001950Y002763D01*
X001950Y003361D01*
X001965Y003388D01*
X001950Y003441D01*
X001950Y003496D01*
X001928Y003518D01*
X001920Y003548D01*
X001872Y003574D01*
X001833Y003613D01*
X001802Y003613D01*
X001775Y003628D01*
X001722Y003613D01*
X001667Y003613D01*
X001645Y003591D01*
X001397Y003520D01*
X001397Y003551D01*
X001309Y003639D01*
X000791Y003639D01*
X000703Y003551D01*
X000703Y002875D01*
X000791Y002788D01*
X001309Y002788D01*
X001397Y002875D01*
X001397Y003104D01*
X001550Y003148D01*
X001550Y002929D01*
X001185Y002564D01*
X001185Y002493D01*
X001106Y002493D01*
X001050Y002437D01*
X001024Y002463D01*
X000990Y002483D01*
X000952Y002493D01*
X000764Y002493D01*
X000764Y002195D01*
X000667Y002195D01*
X000667Y002493D01*
X000479Y002493D01*
X000441Y002483D01*
X000407Y002463D01*
X000379Y002435D01*
X000359Y002401D01*
X000349Y002363D01*
X000349Y002195D01*
X000667Y002195D01*
X000667Y002098D01*
X000349Y002098D01*
X000349Y001930D01*
X000359Y001892D01*
X000379Y001857D01*
X000407Y001829D01*
X000441Y001810D01*
X000479Y001799D01*
X000667Y001799D01*
X000667Y002098D01*
X000764Y002098D01*
X000764Y001799D01*
X000952Y001799D01*
X000990Y001810D01*
X001024Y001829D01*
X001050Y001855D01*
X001106Y001799D01*
X001185Y001799D01*
X001185Y001429D01*
X001750Y000863D01*
X001867Y000746D01*
X005533Y000746D01*
X005952Y001165D01*
X006470Y001165D01*
X006470Y000870D01*
X006558Y000782D01*
X006942Y000782D01*
X007000Y000840D01*
X007058Y000782D01*
X007442Y000782D01*
X007500Y000840D01*
X007558Y000782D01*
X007942Y000782D01*
X008000Y000840D01*
X008058Y000782D01*
X008442Y000782D01*
X008500Y000840D01*
X008558Y000782D01*
X008942Y000782D01*
X009000Y000840D01*
X009058Y000782D01*
X009442Y000782D01*
X009500Y000840D01*
X009500Y000840D01*
X009528Y000812D01*
X009562Y000792D01*
X009600Y000782D01*
X009735Y000782D01*
X009735Y001350D01*
X009765Y001350D01*
X009765Y000782D01*
X009900Y000782D01*
X009938Y000792D01*
X009972Y000812D01*
X010000Y000840D01*
X010020Y000874D01*
X010030Y000912D01*
X010030Y001350D01*
X009765Y001350D01*
X009765Y001380D01*
X010030Y001380D01*
X010030Y001818D01*
X010020Y001856D01*
X010000Y001890D01*
X009972Y001918D01*
X009938Y001938D01*
X009900Y001948D01*
X009765Y001948D01*
X009765Y001380D01*
X009735Y001380D01*
X009735Y001928D01*
X009792Y001985D01*
X009835Y002090D01*
X009835Y002203D01*
X009792Y002308D01*
X009711Y002388D01*
X009607Y002431D01*
X009493Y002431D01*
X009389Y002388D01*
X009308Y002308D01*
X009265Y002203D01*
X009265Y002144D01*
X009069Y001948D01*
X009058Y001948D01*
X009000Y001890D01*
X008942Y001948D01*
X008685Y001948D01*
X008685Y002053D01*
X008642Y002158D01*
X008561Y002238D01*
X008457Y002281D01*
X008432Y002281D01*
X008435Y002290D01*
X008435Y002403D01*
X008392Y002508D01*
X008311Y002588D01*
X008207Y002631D01*
X008093Y002631D01*
X007989Y002588D01*
X007908Y002508D01*
X007865Y002403D01*
X007865Y002344D01*
X007750Y002229D01*
X007250Y002729D01*
X007133Y002846D01*
X005129Y002846D01*
X005129Y002846D01*
X006633Y002846D01*
X006833Y003046D01*
X006931Y003144D01*
X006942Y003144D01*
X006965Y003167D01*
X006965Y003090D01*
X007008Y002985D01*
X007089Y002905D01*
X007193Y002861D01*
X007307Y002861D01*
X007411Y002905D01*
X007492Y002985D01*
X007535Y003090D01*
X007535Y003167D01*
X007558Y003144D01*
X007942Y003144D01*
X008000Y003202D01*
X008058Y003144D01*
X008442Y003144D01*
X008500Y003202D01*
X008558Y003144D01*
X008942Y003144D01*
X009000Y003202D01*
X009058Y003144D01*
X009350Y003144D01*
X009350Y003046D01*
X008653Y003046D01*
X008611Y003088D01*
X008507Y003131D01*
X008393Y003131D01*
X008289Y003088D01*
X008208Y003008D01*
X008165Y002903D01*
X008165Y002790D01*
X008208Y002685D01*
X008289Y002605D01*
X008393Y002561D01*
X008507Y002561D01*
X008611Y002605D01*
X008653Y002646D01*
X009367Y002646D01*
X009467Y002546D01*
X010103Y002546D01*
X010103Y002360D01*
X010402Y002360D01*
X010402Y002263D01*
X010498Y002263D01*
X010498Y001945D01*
X010667Y001945D01*
X010705Y001955D01*
X010739Y001975D01*
X010767Y002003D01*
X010787Y002037D01*
X010797Y002075D01*
X010797Y002263D01*
X010498Y002263D01*
X010498Y002360D01*
X010797Y002360D01*
X010797Y002546D01*
X010933Y002546D01*
X011050Y002663D01*
X011050Y003436D01*
X011063Y003436D01*
X011763Y002736D01*
X012363Y002736D01*
X012385Y002714D01*
X012306Y002714D01*
X012306Y002378D01*
X012206Y002378D01*
X012206Y002278D01*
X011870Y002278D01*
X011870Y002072D01*
X011880Y002034D01*
X011900Y001999D01*
X011928Y001972D01*
X011962Y001952D01*
X012000Y001942D01*
X012206Y001942D01*
X012206Y002278D01*
X012306Y002278D01*
X012306Y001942D01*
X012512Y001942D01*
X012550Y001952D01*
X012585Y001972D01*
X012613Y001999D01*
X012632Y002034D01*
X012643Y002072D01*
X012643Y002278D01*
X012306Y002278D01*
X012306Y002378D01*
X012643Y002378D01*
X012643Y002457D01*
X012657Y002442D01*
X012657Y002029D01*
X012745Y001942D01*
X013342Y001942D01*
X013350Y001949D01*
X013444Y001910D01*
X013558Y001910D01*
X013663Y001953D01*
X013743Y002034D01*
X013786Y002138D01*
X013786Y002252D01*
X013743Y002357D01*
X013663Y002437D01*
X013558Y002480D01*
X013468Y002480D01*
X015160Y004172D01*
X015160Y005127D01*
X015395Y005362D01*
X015395Y005731D01*
X015134Y005992D01*
X014766Y005992D01*
X014505Y005731D01*
X014505Y005362D01*
X014740Y005127D01*
X014740Y004346D01*
X013108Y002714D01*
X012979Y002714D01*
X012660Y003033D01*
X012537Y003156D01*
X011937Y003156D01*
X011360Y003733D01*
X011237Y003856D01*
X011050Y003856D01*
X011050Y004029D01*
X010933Y004146D01*
X010797Y004146D01*
X010797Y004660D01*
X010709Y004747D01*
X010191Y004747D01*
X010155Y004711D01*
X010107Y004731D01*
X009993Y004731D01*
X009889Y004688D01*
X009808Y004608D01*
X009765Y004503D01*
X009765Y004390D01*
X009798Y004310D01*
X009650Y004310D01*
X009650Y004453D01*
X009653Y004453D01*
X009741Y004540D01*
X009741Y005452D01*
X009653Y005540D01*
X009213Y005540D01*
X009206Y005532D01*
X009177Y005540D01*
X009029Y005540D01*
X009029Y005025D01*
X008971Y005025D01*
X008971Y005540D01*
X008823Y005540D01*
X008794Y005532D01*
X008787Y005540D01*
X008347Y005540D01*
X008259Y005452D01*
X008259Y004640D01*
X008211Y004688D01*
X008107Y004731D01*
X007993Y004731D01*
X007950Y004713D01*
X007950Y004729D01*
X007833Y004846D01*
X007233Y005446D01*
X006395Y005446D01*
X006395Y005731D01*
X006134Y005992D01*
X005766Y005992D01*
X005505Y005731D01*
X005505Y005362D01*
X005720Y005146D01*
X005433Y005146D01*
X005306Y005273D01*
X005395Y005362D01*
X005395Y005731D01*
X005134Y005992D01*
X004766Y005992D01*
X004505Y005731D01*
X004505Y005362D01*
X004766Y005101D01*
X004912Y005101D01*
X005150Y004863D01*
X005167Y004846D01*
X004733Y004846D01*
X004306Y005273D01*
X004395Y005362D01*
X004395Y005731D01*
X004134Y005992D01*
X003766Y005992D01*
X003505Y005731D01*
X003505Y005362D01*
X003766Y005101D01*
X003912Y005101D01*
X004450Y004563D01*
X004567Y004446D01*
X006267Y004446D01*
X006480Y004233D01*
X006470Y004223D01*
X006470Y003249D01*
X006467Y003246D01*
X005129Y003246D01*
X005229Y003346D01*
X005747Y003346D01*
X005789Y003305D01*
X005893Y003261D01*
X006007Y003261D01*
X006111Y003305D01*
X006192Y003385D01*
X006235Y003490D01*
X006235Y003603D01*
X006192Y003708D01*
X006111Y003788D01*
X006007Y003831D01*
X005893Y003831D01*
X005789Y003788D01*
X005747Y003746D01*
X005229Y003746D01*
X004949Y004026D01*
X004551Y004026D01*
X004270Y003745D01*
X004270Y003347D01*
X004371Y003246D01*
X004167Y003246D01*
X004050Y003129D01*
X003947Y003026D01*
X003551Y003026D01*
X003270Y002745D01*
X003270Y002347D01*
X003551Y002066D01*
X003949Y002066D01*
X004230Y002347D01*
X004230Y002743D01*
X004333Y002846D01*
X004371Y002846D01*
X004270Y002745D01*
X004270Y002347D01*
X004371Y002246D01*
X004167Y002246D01*
X003947Y002026D01*
X003551Y002026D01*
X003271Y001746D01*
X002797Y001746D01*
X002797Y002190D01*
X002741Y002246D01*
X002797Y002302D01*
X002797Y002860D01*
X002709Y002947D01*
X002650Y002947D01*
X002650Y004529D01*
X002150Y005029D01*
X002150Y005117D01*
X002395Y005362D01*
X002395Y005731D01*
X002134Y005992D01*
X001766Y005992D01*
X001505Y005731D01*
X001639Y005865D02*
X001261Y005865D01*
X001162Y005964D02*
X001738Y005964D01*
X002162Y005964D02*
X002738Y005964D01*
X002766Y005992D02*
X002505Y005731D01*
X002505Y005362D01*
X002750Y005117D01*
X002749Y004931D01*
X002748Y004931D01*
X002748Y004848D01*
X002748Y004766D01*
X002748Y004766D01*
X002748Y004765D01*
X002807Y004707D01*
X002865Y004648D01*
X003165Y004348D01*
X003165Y004290D01*
X003208Y004185D01*
X003289Y004105D01*
X003393Y004061D01*
X003507Y004061D01*
X003611Y004105D01*
X003692Y004185D01*
X003735Y004290D01*
X003735Y004403D01*
X003692Y004508D01*
X003611Y004588D01*
X003507Y004631D01*
X003448Y004631D01*
X003149Y004930D01*
X003150Y005066D01*
X003150Y005067D01*
X003150Y005117D01*
X003395Y005362D01*
X003395Y005731D01*
X003134Y005992D01*
X002766Y005992D01*
X002639Y005865D02*
X002261Y005865D01*
X002359Y005767D02*
X002541Y005767D01*
X002505Y005668D02*
X002395Y005668D01*
X002395Y005570D02*
X002505Y005570D01*
X002505Y005471D02*
X002395Y005471D01*
X002395Y005373D02*
X002505Y005373D01*
X002592Y005274D02*
X002308Y005274D01*
X002209Y005176D02*
X002691Y005176D01*
X002750Y005077D02*
X002150Y005077D01*
X002200Y004979D02*
X002749Y004979D01*
X002748Y004880D02*
X002299Y004880D01*
X002397Y004782D02*
X002748Y004782D01*
X002830Y004683D02*
X002496Y004683D01*
X002594Y004585D02*
X002929Y004585D01*
X002865Y004648D02*
X002865Y004648D01*
X003027Y004486D02*
X002650Y004486D01*
X002450Y004446D02*
X001950Y004946D01*
X001950Y005546D01*
X001950Y005547D01*
X001505Y005471D02*
X001395Y005471D01*
X001395Y005373D02*
X001505Y005373D01*
X001592Y005274D02*
X001308Y005274D01*
X001249Y005176D02*
X001691Y005176D01*
X001750Y005077D02*
X001284Y005077D01*
X001319Y004979D02*
X001750Y004979D01*
X001750Y004880D02*
X001354Y004880D01*
X001388Y004782D02*
X001832Y004782D01*
X001930Y004683D02*
X001423Y004683D01*
X001458Y004585D02*
X002029Y004585D01*
X002127Y004486D02*
X001702Y004486D01*
X001771Y004388D02*
X002226Y004388D01*
X002250Y004289D02*
X001771Y004289D01*
X001771Y004191D02*
X002250Y004191D01*
X002250Y004092D02*
X001771Y004092D01*
X001771Y003994D02*
X002250Y003994D01*
X002250Y003895D02*
X001771Y003895D01*
X001771Y003797D02*
X002250Y003797D01*
X002250Y003698D02*
X001728Y003698D01*
X001654Y003600D02*
X001348Y003600D01*
X001121Y003698D02*
X000979Y003698D01*
X000703Y003501D02*
X000300Y003501D01*
X000300Y003403D02*
X000703Y003403D01*
X000703Y003304D02*
X000300Y003304D01*
X000300Y003206D02*
X000703Y003206D01*
X000703Y003107D02*
X000300Y003107D01*
X000300Y003009D02*
X000703Y003009D01*
X000703Y002910D02*
X000300Y002910D01*
X000300Y002812D02*
X000767Y002812D01*
X000300Y002713D02*
X001334Y002713D01*
X001333Y002812D02*
X001433Y002812D01*
X001397Y002910D02*
X001531Y002910D01*
X001550Y003009D02*
X001397Y003009D01*
X001407Y003107D02*
X001550Y003107D01*
X001950Y003107D02*
X002250Y003107D01*
X002250Y003206D02*
X001950Y003206D01*
X001950Y003304D02*
X002250Y003304D01*
X002250Y003403D02*
X001961Y003403D01*
X001945Y003501D02*
X002250Y003501D01*
X002250Y003600D02*
X001846Y003600D01*
X001750Y003413D02*
X001050Y003213D01*
X001750Y003413D02*
X001750Y002846D01*
X001385Y002481D01*
X001385Y002146D01*
X001385Y001512D01*
X001950Y000946D01*
X005450Y000946D01*
X005869Y001365D01*
X006750Y001365D01*
X006470Y001137D02*
X005924Y001137D01*
X005825Y001039D02*
X006470Y001039D01*
X006470Y000940D02*
X005727Y000940D01*
X005628Y000842D02*
X006498Y000842D01*
X007250Y001365D02*
X007250Y001846D01*
X006850Y002246D01*
X005750Y002246D01*
X005250Y002046D02*
X005550Y001746D01*
X006350Y001746D01*
X005250Y002046D02*
X004250Y002046D01*
X003750Y001546D01*
X002550Y001546D01*
X002450Y001646D01*
X002450Y001912D01*
X002797Y001925D02*
X003450Y001925D01*
X003352Y001827D02*
X002797Y001827D01*
X002797Y002024D02*
X003549Y002024D01*
X003495Y002122D02*
X002797Y002122D01*
X002766Y002221D02*
X003397Y002221D01*
X003298Y002319D02*
X002797Y002319D01*
X002797Y002418D02*
X003270Y002418D01*
X003270Y002516D02*
X002797Y002516D01*
X002797Y002615D02*
X003270Y002615D01*
X003270Y002713D02*
X002797Y002713D01*
X002797Y002812D02*
X003337Y002812D01*
X003435Y002910D02*
X002746Y002910D01*
X002650Y003009D02*
X003534Y003009D01*
X003551Y003066D02*
X003270Y003347D01*
X003270Y003496D01*
X003700Y003496D01*
X003800Y003496D01*
X003800Y003066D01*
X003949Y003066D01*
X004230Y003347D01*
X004230Y003496D01*
X003800Y003496D01*
X003800Y003596D01*
X004230Y003596D01*
X004230Y003745D01*
X003949Y004026D01*
X003800Y004026D01*
X003800Y003596D01*
X003700Y003596D01*
X003700Y003496D01*
X003700Y003066D01*
X003551Y003066D01*
X003510Y003107D02*
X002650Y003107D01*
X002650Y003206D02*
X003412Y003206D01*
X003700Y003206D02*
X003800Y003206D01*
X003800Y003107D02*
X003700Y003107D01*
X003990Y003107D02*
X004028Y003107D01*
X004050Y003129D02*
X004050Y003129D01*
X004088Y003206D02*
X004127Y003206D01*
X004187Y003304D02*
X004313Y003304D01*
X004270Y003403D02*
X004230Y003403D01*
X004270Y003501D02*
X003800Y003501D01*
X003800Y003403D02*
X003700Y003403D01*
X003700Y003501D02*
X002650Y003501D01*
X002650Y003403D02*
X003270Y003403D01*
X003313Y003304D02*
X002650Y003304D01*
X002650Y003600D02*
X003270Y003600D01*
X003270Y003596D02*
X003700Y003596D01*
X003700Y004026D01*
X003551Y004026D01*
X003270Y003745D01*
X003270Y003596D01*
X003270Y003698D02*
X002650Y003698D01*
X002650Y003797D02*
X003322Y003797D01*
X003420Y003895D02*
X002650Y003895D01*
X002650Y003994D02*
X003519Y003994D01*
X003582Y004092D02*
X006470Y004092D01*
X006470Y003994D02*
X004981Y003994D01*
X005080Y003895D02*
X006470Y003895D01*
X006470Y003797D02*
X006090Y003797D01*
X005810Y003797D02*
X005178Y003797D01*
X004750Y003546D02*
X005950Y003546D01*
X006199Y003403D02*
X006470Y003403D01*
X006470Y003501D02*
X006235Y003501D01*
X006235Y003600D02*
X006470Y003600D01*
X006470Y003698D02*
X006196Y003698D01*
X006750Y003727D02*
X006750Y003246D01*
X006550Y003046D01*
X004250Y003046D01*
X003750Y002546D01*
X004230Y002516D02*
X004270Y002516D01*
X004270Y002418D02*
X004230Y002418D01*
X004202Y002319D02*
X004298Y002319D01*
X004142Y002221D02*
X004103Y002221D01*
X004043Y002122D02*
X004005Y002122D01*
X004750Y002546D02*
X004850Y002646D01*
X007050Y002646D01*
X007750Y001946D01*
X007750Y001365D01*
X008250Y001365D02*
X008250Y001846D01*
X008400Y001996D01*
X008685Y002024D02*
X009145Y002024D01*
X009243Y002122D02*
X008656Y002122D01*
X008579Y002221D02*
X009272Y002221D01*
X009320Y002319D02*
X008435Y002319D01*
X008429Y002418D02*
X009461Y002418D01*
X009639Y002418D02*
X010103Y002418D01*
X010103Y002516D02*
X008383Y002516D01*
X008278Y002615D02*
X008247Y002615D01*
X008053Y002615D02*
X007364Y002615D01*
X007266Y002713D02*
X008197Y002713D01*
X008165Y002812D02*
X007167Y002812D01*
X007083Y002910D02*
X006697Y002910D01*
X006795Y003009D02*
X006998Y003009D01*
X006965Y003107D02*
X006894Y003107D01*
X007250Y003146D02*
X007250Y003727D01*
X007250Y004446D01*
X006750Y004946D01*
X005350Y004946D01*
X004948Y005348D01*
X004948Y005545D01*
X004950Y005546D01*
X005395Y005570D02*
X005505Y005570D01*
X005505Y005668D02*
X005395Y005668D01*
X005359Y005767D02*
X005541Y005767D01*
X005639Y005865D02*
X005261Y005865D01*
X005162Y005964D02*
X005738Y005964D01*
X006162Y005964D02*
X010738Y005964D01*
X010766Y005992D02*
X010505Y005731D01*
X010505Y005362D01*
X010766Y005101D01*
X011134Y005101D01*
X011395Y005362D01*
X011395Y005731D01*
X011134Y005992D01*
X010766Y005992D01*
X010639Y005865D02*
X006261Y005865D01*
X006359Y005767D02*
X010541Y005767D01*
X010505Y005668D02*
X006395Y005668D01*
X006395Y005570D02*
X010505Y005570D01*
X010505Y005471D02*
X009721Y005471D01*
X009741Y005373D02*
X010505Y005373D01*
X010592Y005274D02*
X009741Y005274D01*
X009741Y005176D02*
X010691Y005176D01*
X011209Y005176D02*
X011691Y005176D01*
X011766Y005101D02*
X011902Y005101D01*
X011902Y005498D01*
X011998Y005498D01*
X011998Y005101D01*
X012134Y005101D01*
X012395Y005362D01*
X012395Y005498D01*
X011998Y005498D01*
X011998Y005595D01*
X011902Y005595D01*
X011902Y005992D01*
X011766Y005992D01*
X011505Y005731D01*
X011505Y005595D01*
X011902Y005595D01*
X011902Y005498D01*
X011505Y005498D01*
X011505Y005362D01*
X011766Y005101D01*
X011902Y005176D02*
X011998Y005176D01*
X011998Y005274D02*
X011902Y005274D01*
X011902Y005373D02*
X011998Y005373D01*
X011998Y005471D02*
X011902Y005471D01*
X011902Y005570D02*
X011395Y005570D01*
X011395Y005668D02*
X011505Y005668D01*
X011541Y005767D02*
X011359Y005767D01*
X011261Y005865D02*
X011639Y005865D01*
X011738Y005964D02*
X011162Y005964D01*
X011902Y005964D02*
X011998Y005964D01*
X011998Y005992D02*
X012134Y005992D01*
X012395Y005731D01*
X012395Y005595D01*
X011998Y005595D01*
X011998Y005992D01*
X012162Y005964D02*
X012738Y005964D01*
X012766Y005992D02*
X012505Y005731D01*
X012505Y005362D01*
X012766Y005101D01*
X013134Y005101D01*
X013395Y005362D01*
X013395Y005731D01*
X013134Y005992D01*
X012766Y005992D01*
X012639Y005865D02*
X012261Y005865D01*
X011998Y005865D02*
X011902Y005865D01*
X011902Y005767D02*
X011998Y005767D01*
X011998Y005668D02*
X011902Y005668D01*
X011998Y005570D02*
X012505Y005570D01*
X012505Y005668D02*
X012395Y005668D01*
X012359Y005767D02*
X012541Y005767D01*
X013162Y005964D02*
X013738Y005964D01*
X013766Y005992D02*
X013505Y005731D01*
X013505Y005362D01*
X013738Y005128D01*
X013738Y005022D01*
X012818Y004102D01*
X012293Y004102D01*
X012205Y004014D01*
X012205Y003260D01*
X012293Y003172D01*
X013007Y003172D01*
X013095Y003260D01*
X013095Y003785D01*
X014035Y004725D01*
X014158Y004848D01*
X014158Y005125D01*
X014395Y005362D01*
X014395Y005731D01*
X014134Y005992D01*
X013766Y005992D01*
X013639Y005865D02*
X013261Y005865D01*
X013359Y005767D02*
X013541Y005767D01*
X013505Y005668D02*
X013395Y005668D01*
X013395Y005570D02*
X013505Y005570D01*
X013505Y005471D02*
X013395Y005471D01*
X013395Y005373D02*
X013505Y005373D01*
X013592Y005274D02*
X013308Y005274D01*
X013209Y005176D02*
X013691Y005176D01*
X013738Y005077D02*
X009741Y005077D01*
X009741Y004979D02*
X013695Y004979D01*
X013596Y004880D02*
X009741Y004880D01*
X009741Y004782D02*
X013498Y004782D01*
X013399Y004683D02*
X010773Y004683D01*
X010797Y004585D02*
X013301Y004585D01*
X013202Y004486D02*
X010797Y004486D01*
X010797Y004388D02*
X013104Y004388D01*
X013005Y004289D02*
X010797Y004289D01*
X010797Y004191D02*
X012907Y004191D01*
X013304Y003994D02*
X014388Y003994D01*
X014486Y004092D02*
X013402Y004092D01*
X013501Y004191D02*
X014585Y004191D01*
X014683Y004289D02*
X013599Y004289D01*
X013698Y004388D02*
X014740Y004388D01*
X014740Y004486D02*
X013796Y004486D01*
X013895Y004585D02*
X014740Y004585D01*
X014740Y004683D02*
X013993Y004683D01*
X014092Y004782D02*
X014740Y004782D01*
X014740Y004880D02*
X014158Y004880D01*
X014158Y004979D02*
X014740Y004979D01*
X014740Y005077D02*
X014158Y005077D01*
X014209Y005176D02*
X014691Y005176D01*
X014592Y005274D02*
X014308Y005274D01*
X014395Y005373D02*
X014505Y005373D01*
X014505Y005471D02*
X014395Y005471D01*
X014395Y005570D02*
X014505Y005570D01*
X014505Y005668D02*
X014395Y005668D01*
X014359Y005767D02*
X014541Y005767D01*
X014639Y005865D02*
X014261Y005865D01*
X014162Y005964D02*
X014738Y005964D01*
X015162Y005964D02*
X015566Y005964D01*
X015563Y005962D02*
X015535Y005934D01*
X015515Y005899D01*
X015505Y005861D01*
X015505Y005595D01*
X015902Y005595D01*
X015902Y005992D01*
X015635Y005992D01*
X015597Y005981D01*
X015563Y005962D01*
X015506Y005865D02*
X015261Y005865D01*
X015359Y005767D02*
X015505Y005767D01*
X015505Y005668D02*
X015395Y005668D01*
X015395Y005570D02*
X015902Y005570D01*
X015902Y005595D02*
X015902Y005498D01*
X015998Y005498D01*
X015998Y005101D01*
X016265Y005101D01*
X016303Y005111D01*
X016337Y005131D01*
X016365Y005159D01*
X016385Y005193D01*
X016395Y005231D01*
X016395Y005498D01*
X015998Y005498D01*
X015998Y005595D01*
X015902Y005595D01*
X015998Y005595D02*
X015998Y005992D01*
X016265Y005992D01*
X016303Y005981D01*
X016337Y005962D01*
X016365Y005934D01*
X016385Y005899D01*
X016395Y005861D01*
X016395Y005595D01*
X015998Y005595D01*
X015998Y005570D02*
X016700Y005570D01*
X016700Y005668D02*
X016395Y005668D01*
X016395Y005767D02*
X016700Y005767D01*
X016700Y005865D02*
X016394Y005865D01*
X016334Y005964D02*
X016700Y005964D01*
X015998Y005964D02*
X015902Y005964D01*
X015902Y005865D02*
X015998Y005865D01*
X015998Y005767D02*
X015902Y005767D01*
X015902Y005668D02*
X015998Y005668D01*
X015902Y005498D02*
X015505Y005498D01*
X015505Y005231D01*
X015515Y005193D01*
X015535Y005159D01*
X015563Y005131D01*
X015597Y005111D01*
X015635Y005101D01*
X015902Y005101D01*
X015902Y005498D01*
X015902Y005471D02*
X015998Y005471D01*
X015998Y005373D02*
X015902Y005373D01*
X015902Y005274D02*
X015998Y005274D01*
X015998Y005176D02*
X015902Y005176D01*
X015525Y005176D02*
X015209Y005176D01*
X015308Y005274D02*
X015505Y005274D01*
X015505Y005373D02*
X015395Y005373D01*
X015395Y005471D02*
X015505Y005471D01*
X015160Y005077D02*
X016700Y005077D01*
X016700Y004979D02*
X015160Y004979D01*
X015160Y004880D02*
X016700Y004880D01*
X016700Y004782D02*
X015160Y004782D01*
X015160Y004683D02*
X016700Y004683D01*
X016700Y004585D02*
X015160Y004585D01*
X015160Y004486D02*
X016700Y004486D01*
X016700Y004388D02*
X015160Y004388D01*
X015160Y004289D02*
X016700Y004289D01*
X016700Y004191D02*
X015160Y004191D01*
X015080Y004092D02*
X016700Y004092D01*
X016700Y003994D02*
X014982Y003994D01*
X014883Y003895D02*
X016700Y003895D01*
X016700Y003797D02*
X014785Y003797D01*
X014686Y003698D02*
X016700Y003698D01*
X016700Y003600D02*
X016333Y003600D01*
X016236Y003696D02*
X016100Y003696D01*
X016100Y003296D01*
X016500Y003296D01*
X016500Y003433D01*
X016236Y003696D01*
X016100Y003600D02*
X016000Y003600D01*
X016000Y003696D02*
X015864Y003696D01*
X015600Y003433D01*
X015600Y003296D01*
X016000Y003296D01*
X016000Y003196D01*
X016100Y003196D01*
X016100Y002796D01*
X016236Y002796D01*
X016500Y003060D01*
X016500Y003196D01*
X016100Y003196D01*
X016100Y003296D01*
X016000Y003296D01*
X016000Y003696D01*
X015767Y003600D02*
X014588Y003600D01*
X014489Y003501D02*
X015669Y003501D01*
X015600Y003403D02*
X014391Y003403D01*
X014292Y003304D02*
X015600Y003304D01*
X015600Y003196D02*
X015600Y003060D01*
X015864Y002796D01*
X016000Y002796D01*
X016000Y003196D01*
X015600Y003196D01*
X015600Y003107D02*
X014095Y003107D01*
X014194Y003206D02*
X016000Y003206D01*
X016000Y003107D02*
X016100Y003107D01*
X016100Y003206D02*
X016700Y003206D01*
X016700Y003107D02*
X016500Y003107D01*
X016449Y003009D02*
X016700Y003009D01*
X016700Y002910D02*
X016350Y002910D01*
X016100Y002910D02*
X016000Y002910D01*
X016000Y003009D02*
X016100Y003009D01*
X015750Y002910D02*
X013898Y002910D01*
X013997Y003009D02*
X015651Y003009D01*
X015848Y002812D02*
X013800Y002812D01*
X013701Y002713D02*
X016700Y002713D01*
X016700Y002812D02*
X016252Y002812D01*
X016100Y002812D02*
X016000Y002812D01*
X015864Y002696D02*
X015600Y002433D01*
X015600Y002060D01*
X015864Y001796D01*
X016236Y001796D01*
X016500Y002060D01*
X016500Y002433D01*
X016236Y002696D01*
X015864Y002696D01*
X015782Y002615D02*
X013603Y002615D01*
X013504Y002516D02*
X015684Y002516D01*
X015600Y002418D02*
X013682Y002418D01*
X013758Y002319D02*
X015600Y002319D01*
X015600Y002221D02*
X013786Y002221D01*
X013780Y002122D02*
X015600Y002122D01*
X015636Y002024D02*
X013733Y002024D01*
X013595Y001925D02*
X015735Y001925D01*
X015833Y001827D02*
X010028Y001827D01*
X009960Y001925D02*
X013408Y001925D01*
X012663Y002024D02*
X012627Y002024D01*
X012643Y002122D02*
X012657Y002122D01*
X012643Y002221D02*
X012657Y002221D01*
X012657Y002319D02*
X012306Y002319D01*
X012306Y002221D02*
X012206Y002221D01*
X012206Y002319D02*
X010498Y002319D01*
X010402Y002319D02*
X009780Y002319D01*
X009828Y002221D02*
X010103Y002221D01*
X010103Y002263D02*
X010103Y002075D01*
X010113Y002037D01*
X010133Y002003D01*
X010161Y001975D01*
X010195Y001955D01*
X010233Y001945D01*
X010402Y001945D01*
X010402Y002263D01*
X010103Y002263D01*
X010103Y002122D02*
X009835Y002122D01*
X009808Y002024D02*
X010121Y002024D01*
X010402Y002024D02*
X010498Y002024D01*
X010498Y002122D02*
X010402Y002122D01*
X010402Y002221D02*
X010498Y002221D01*
X010797Y002221D02*
X011870Y002221D01*
X011870Y002122D02*
X010797Y002122D01*
X010779Y002024D02*
X011886Y002024D01*
X012206Y002024D02*
X012306Y002024D01*
X012306Y002122D02*
X012206Y002122D01*
X012206Y002378D02*
X011870Y002378D01*
X011870Y002584D01*
X011880Y002622D01*
X011900Y002656D01*
X011928Y002684D01*
X011962Y002704D01*
X012000Y002714D01*
X012206Y002714D01*
X012206Y002378D01*
X012206Y002418D02*
X012306Y002418D01*
X012306Y002516D02*
X012206Y002516D01*
X012206Y002615D02*
X012306Y002615D01*
X012306Y002713D02*
X012206Y002713D01*
X011998Y002713D02*
X011050Y002713D01*
X011050Y002812D02*
X011688Y002812D01*
X011589Y002910D02*
X011050Y002910D01*
X011050Y003009D02*
X011491Y003009D01*
X011392Y003107D02*
X011050Y003107D01*
X011050Y003206D02*
X011294Y003206D01*
X011195Y003304D02*
X011050Y003304D01*
X010850Y003304D02*
X010752Y003304D01*
X010739Y003317D02*
X010767Y003290D01*
X010787Y003255D01*
X010797Y003217D01*
X010797Y003029D01*
X010498Y003029D01*
X010402Y003029D01*
X010402Y002932D01*
X010103Y002932D01*
X010103Y002746D01*
X009550Y002746D01*
X009550Y003162D01*
X009562Y003155D01*
X009600Y003144D01*
X009735Y003144D01*
X009735Y003712D01*
X009765Y003712D01*
X009765Y003144D01*
X009900Y003144D01*
X009938Y003155D01*
X009972Y003174D01*
X010000Y003202D01*
X010020Y003236D01*
X010030Y003275D01*
X010030Y003712D01*
X009765Y003712D01*
X009765Y003742D01*
X010030Y003742D01*
X010030Y003946D01*
X010103Y003946D01*
X010103Y003760D01*
X010402Y003760D01*
X010402Y003663D01*
X010498Y003663D01*
X010498Y003345D01*
X010498Y003029D01*
X010498Y002932D01*
X010797Y002932D01*
X010797Y002746D01*
X010850Y002746D01*
X010850Y003946D01*
X010797Y003946D01*
X010797Y003760D01*
X010498Y003760D01*
X010498Y003663D01*
X010797Y003663D01*
X010797Y003475D01*
X010787Y003437D01*
X010767Y003403D01*
X010739Y003375D01*
X010705Y003355D01*
X010671Y003346D01*
X010705Y003337D01*
X010739Y003317D01*
X010498Y003304D02*
X010402Y003304D01*
X010402Y003206D02*
X010498Y003206D01*
X010498Y003107D02*
X010402Y003107D01*
X010402Y003029D02*
X010402Y003663D01*
X010103Y003663D01*
X010103Y003475D01*
X010113Y003437D01*
X010133Y003403D01*
X010161Y003375D01*
X010195Y003355D01*
X010229Y003346D01*
X010195Y003337D01*
X010161Y003317D01*
X010133Y003290D01*
X010113Y003255D01*
X010103Y003217D01*
X010103Y003029D01*
X010402Y003029D01*
X010402Y003009D02*
X009550Y003009D01*
X009550Y002910D02*
X010103Y002910D01*
X010103Y002812D02*
X009550Y002812D01*
X009750Y002846D02*
X008450Y002846D01*
X008168Y002910D02*
X007417Y002910D01*
X007502Y003009D02*
X008209Y003009D01*
X008335Y003107D02*
X007535Y003107D01*
X008565Y003107D02*
X009350Y003107D01*
X009550Y003107D02*
X010103Y003107D01*
X010103Y003206D02*
X010002Y003206D01*
X009765Y003206D02*
X009735Y003206D01*
X009735Y003304D02*
X009765Y003304D01*
X010030Y003304D02*
X010148Y003304D01*
X010133Y003403D02*
X010030Y003403D01*
X010030Y003501D02*
X010103Y003501D01*
X010103Y003600D02*
X010030Y003600D01*
X010030Y003698D02*
X010402Y003698D01*
X010498Y003698D02*
X010850Y003698D01*
X010850Y003600D02*
X010797Y003600D01*
X010797Y003501D02*
X010850Y003501D01*
X010850Y003403D02*
X010767Y003403D01*
X011050Y003403D02*
X011097Y003403D01*
X011592Y003501D02*
X012205Y003501D01*
X012205Y003403D02*
X011690Y003403D01*
X011789Y003304D02*
X012205Y003304D01*
X012259Y003206D02*
X011887Y003206D01*
X012586Y003107D02*
X013501Y003107D01*
X013600Y003206D02*
X013041Y003206D01*
X013095Y003304D02*
X013698Y003304D01*
X013797Y003403D02*
X013095Y003403D01*
X013095Y003501D02*
X013895Y003501D01*
X013994Y003600D02*
X013095Y003600D01*
X013095Y003698D02*
X014092Y003698D01*
X014191Y003797D02*
X013107Y003797D01*
X013205Y003895D02*
X014289Y003895D01*
X016000Y003501D02*
X016100Y003501D01*
X016100Y003403D02*
X016000Y003403D01*
X016000Y003304D02*
X016100Y003304D01*
X016500Y003304D02*
X016700Y003304D01*
X016700Y003403D02*
X016500Y003403D01*
X016431Y003501D02*
X016700Y003501D01*
X016700Y002615D02*
X016318Y002615D01*
X016416Y002516D02*
X016700Y002516D01*
X016700Y002418D02*
X016500Y002418D01*
X016500Y002319D02*
X016700Y002319D01*
X016700Y002221D02*
X016500Y002221D01*
X016500Y002122D02*
X016700Y002122D01*
X016700Y002024D02*
X016464Y002024D01*
X016365Y001925D02*
X016700Y001925D01*
X016700Y001827D02*
X016267Y001827D01*
X016700Y001728D02*
X010030Y001728D01*
X009765Y001728D02*
X009735Y001728D01*
X009735Y001630D02*
X009765Y001630D01*
X009765Y001531D02*
X009735Y001531D01*
X010030Y001531D02*
X012675Y001531D01*
X012649Y001505D02*
X012649Y001446D01*
X010553Y001446D01*
X010511Y001488D01*
X010407Y001531D01*
X010293Y001531D01*
X010189Y001488D01*
X010108Y001408D01*
X010065Y001303D01*
X010065Y001190D01*
X010108Y001085D01*
X010189Y001005D01*
X010293Y000961D01*
X010407Y000961D01*
X010511Y001005D01*
X010553Y001046D01*
X012649Y001046D01*
X012649Y000987D01*
X012737Y000899D01*
X013294Y000899D01*
X013350Y000955D01*
X013406Y000899D01*
X013963Y000899D01*
X014051Y000987D01*
X014051Y001046D01*
X015614Y001046D01*
X015864Y000796D01*
X016236Y000796D01*
X016500Y001060D01*
X016500Y001433D01*
X016700Y001433D01*
X016700Y001334D02*
X016500Y001334D01*
X016500Y001433D02*
X016236Y001696D01*
X015864Y001696D01*
X015614Y001446D01*
X014051Y001446D01*
X014051Y001505D01*
X013963Y001593D01*
X013406Y001593D01*
X013350Y001537D01*
X013294Y001593D01*
X012737Y001593D01*
X012649Y001505D01*
X013015Y001246D02*
X010350Y001246D01*
X010087Y001137D02*
X010030Y001137D01*
X010030Y001236D02*
X010065Y001236D01*
X010078Y001334D02*
X010030Y001334D01*
X010030Y001433D02*
X010133Y001433D01*
X009765Y001433D02*
X009735Y001433D01*
X009735Y001334D02*
X009765Y001334D01*
X009765Y001236D02*
X009735Y001236D01*
X009735Y001137D02*
X009765Y001137D01*
X009765Y001039D02*
X009735Y001039D01*
X010030Y001039D02*
X010154Y001039D01*
X010030Y000940D02*
X012696Y000940D01*
X012649Y001039D02*
X010546Y001039D01*
X010001Y000842D02*
X015818Y000842D01*
X015720Y000940D02*
X014004Y000940D01*
X014051Y001039D02*
X015621Y001039D01*
X016050Y001246D02*
X013685Y001246D01*
X013365Y000940D02*
X013335Y000940D01*
X014025Y001531D02*
X015699Y001531D01*
X015797Y001630D02*
X010030Y001630D01*
X009765Y001827D02*
X009735Y001827D01*
X009735Y001925D02*
X009765Y001925D01*
X009550Y002146D02*
X009250Y001846D01*
X009250Y001365D01*
X009735Y000940D02*
X009765Y000940D01*
X009765Y000842D02*
X009735Y000842D01*
X009035Y001925D02*
X008965Y001925D01*
X008150Y002346D02*
X007750Y001946D01*
X007660Y002319D02*
X007840Y002319D01*
X007871Y002418D02*
X007561Y002418D01*
X007463Y002516D02*
X007917Y002516D01*
X008622Y002615D02*
X009399Y002615D01*
X010498Y003009D02*
X010850Y003009D01*
X010850Y002910D02*
X010797Y002910D01*
X010797Y002812D02*
X010850Y002812D01*
X011001Y002615D02*
X011878Y002615D01*
X011870Y002516D02*
X010797Y002516D01*
X010797Y002418D02*
X011870Y002418D01*
X012643Y002418D02*
X012657Y002418D01*
X012881Y002812D02*
X013206Y002812D01*
X013304Y002910D02*
X012783Y002910D01*
X012684Y003009D02*
X013403Y003009D01*
X012205Y003600D02*
X011493Y003600D01*
X011395Y003698D02*
X012205Y003698D01*
X012205Y003797D02*
X011296Y003797D01*
X011050Y003895D02*
X012205Y003895D01*
X012205Y003994D02*
X011050Y003994D01*
X010987Y004092D02*
X012283Y004092D01*
X010850Y003895D02*
X010797Y003895D01*
X010797Y003797D02*
X010850Y003797D01*
X010498Y003600D02*
X010402Y003600D01*
X010402Y003501D02*
X010498Y003501D01*
X010498Y003403D02*
X010402Y003403D01*
X010797Y003206D02*
X010850Y003206D01*
X010850Y003107D02*
X010797Y003107D01*
X009765Y003403D02*
X009735Y003403D01*
X009735Y003501D02*
X009765Y003501D01*
X009765Y003600D02*
X009735Y003600D01*
X009735Y003698D02*
X009765Y003698D01*
X010030Y003797D02*
X010103Y003797D01*
X010103Y003895D02*
X010030Y003895D01*
X009450Y004346D02*
X009250Y004146D01*
X009250Y003727D01*
X008750Y003727D02*
X008750Y004146D01*
X008550Y004346D01*
X008550Y004679D01*
X008567Y004996D01*
X008259Y004979D02*
X007700Y004979D01*
X007602Y005077D02*
X008259Y005077D01*
X008259Y005176D02*
X007503Y005176D01*
X007405Y005274D02*
X008259Y005274D01*
X008259Y005373D02*
X007306Y005373D01*
X007150Y005246D02*
X007750Y004646D01*
X007750Y003727D01*
X008250Y003727D02*
X008250Y004046D01*
X008050Y004246D01*
X008050Y004446D01*
X008216Y004683D02*
X008259Y004683D01*
X008259Y004782D02*
X007897Y004782D01*
X007799Y004880D02*
X008259Y004880D01*
X008971Y004880D02*
X009029Y004880D01*
X009029Y004968D02*
X009029Y004453D01*
X009177Y004453D01*
X009206Y004460D01*
X009213Y004453D01*
X009250Y004453D01*
X009250Y004429D01*
X009131Y004310D01*
X009058Y004310D01*
X009000Y004252D01*
X008942Y004310D01*
X008869Y004310D01*
X008750Y004429D01*
X008750Y004453D01*
X008787Y004453D01*
X008794Y004460D01*
X008823Y004453D01*
X008971Y004453D01*
X008971Y004968D01*
X009029Y004968D01*
X009029Y005077D02*
X008971Y005077D01*
X008971Y005176D02*
X009029Y005176D01*
X009029Y005274D02*
X008971Y005274D01*
X008971Y005373D02*
X009029Y005373D01*
X009029Y005471D02*
X008971Y005471D01*
X008279Y005471D02*
X006395Y005471D01*
X006250Y005246D02*
X006048Y005448D01*
X005948Y005545D01*
X005950Y005546D01*
X005505Y005471D02*
X005395Y005471D01*
X005395Y005373D02*
X005505Y005373D01*
X005592Y005274D02*
X005308Y005274D01*
X005403Y005176D02*
X005691Y005176D01*
X006250Y005246D02*
X007150Y005246D01*
X006350Y004646D02*
X006750Y004246D01*
X006750Y003727D01*
X006470Y003304D02*
X006111Y003304D01*
X005789Y003304D02*
X005187Y003304D01*
X004270Y003600D02*
X004230Y003600D01*
X004230Y003698D02*
X004270Y003698D01*
X004322Y003797D02*
X004178Y003797D01*
X004080Y003895D02*
X004420Y003895D01*
X004519Y003994D02*
X003981Y003994D01*
X003800Y003994D02*
X003700Y003994D01*
X003700Y003895D02*
X003800Y003895D01*
X003800Y003797D02*
X003700Y003797D01*
X003700Y003698D02*
X003800Y003698D01*
X003800Y003600D02*
X003700Y003600D01*
X003700Y003304D02*
X003800Y003304D01*
X004298Y002812D02*
X004337Y002812D01*
X004270Y002713D02*
X004230Y002713D01*
X004230Y002615D02*
X004270Y002615D01*
X002450Y002581D02*
X002450Y004446D01*
X002650Y004388D02*
X003126Y004388D01*
X003165Y004289D02*
X002650Y004289D01*
X002650Y004191D02*
X003206Y004191D01*
X003318Y004092D02*
X002650Y004092D01*
X002948Y004848D02*
X003450Y004346D01*
X003735Y004388D02*
X006326Y004388D01*
X006424Y004289D02*
X003735Y004289D01*
X003694Y004191D02*
X006470Y004191D01*
X006350Y004646D02*
X004650Y004646D01*
X003950Y005346D01*
X003950Y005546D01*
X004395Y005570D02*
X004505Y005570D01*
X004505Y005668D02*
X004395Y005668D01*
X004359Y005767D02*
X004541Y005767D01*
X004639Y005865D02*
X004261Y005865D01*
X004162Y005964D02*
X004738Y005964D01*
X003738Y005964D02*
X003162Y005964D01*
X003261Y005865D02*
X003639Y005865D01*
X003541Y005767D02*
X003359Y005767D01*
X003395Y005668D02*
X003505Y005668D01*
X003505Y005570D02*
X003395Y005570D01*
X003395Y005471D02*
X003505Y005471D01*
X003505Y005373D02*
X003395Y005373D01*
X003308Y005274D02*
X003592Y005274D01*
X003691Y005176D02*
X003209Y005176D01*
X002950Y005149D02*
X002948Y004848D01*
X003199Y004880D02*
X004133Y004880D01*
X004232Y004782D02*
X003297Y004782D01*
X003396Y004683D02*
X004330Y004683D01*
X004429Y004585D02*
X003615Y004585D01*
X003700Y004486D02*
X004527Y004486D01*
X004699Y004880D02*
X005133Y004880D01*
X005035Y004979D02*
X004600Y004979D01*
X004502Y005077D02*
X004936Y005077D01*
X004691Y005176D02*
X004403Y005176D01*
X004308Y005274D02*
X004592Y005274D01*
X004505Y005373D02*
X004395Y005373D01*
X004395Y005471D02*
X004505Y005471D01*
X003936Y005077D02*
X003150Y005077D01*
X003149Y004979D02*
X004035Y004979D01*
X002950Y005149D02*
X002950Y005546D01*
X008791Y004388D02*
X009209Y004388D01*
X009450Y004346D02*
X009450Y004679D01*
X009433Y004996D01*
X009029Y004782D02*
X008971Y004782D01*
X008971Y004683D02*
X009029Y004683D01*
X009029Y004585D02*
X008971Y004585D01*
X008971Y004486D02*
X009029Y004486D01*
X009037Y004289D02*
X008963Y004289D01*
X009650Y004388D02*
X009766Y004388D01*
X010050Y004446D02*
X010450Y004446D01*
X010450Y004381D01*
X009799Y004585D02*
X009741Y004585D01*
X009765Y004486D02*
X009686Y004486D01*
X009741Y004683D02*
X009884Y004683D01*
X011308Y005274D02*
X011592Y005274D01*
X011505Y005373D02*
X011395Y005373D01*
X011395Y005471D02*
X011505Y005471D01*
X012209Y005176D02*
X012691Y005176D01*
X012592Y005274D02*
X012308Y005274D01*
X012395Y005373D02*
X012505Y005373D01*
X012505Y005471D02*
X012395Y005471D01*
X016375Y005176D02*
X016700Y005176D01*
X016700Y005274D02*
X016395Y005274D01*
X016395Y005373D02*
X016700Y005373D01*
X016700Y005471D02*
X016395Y005471D01*
X016303Y001630D02*
X016700Y001630D01*
X016700Y001531D02*
X016401Y001531D01*
X016500Y001236D02*
X016700Y001236D01*
X016700Y001137D02*
X016500Y001137D01*
X016479Y001039D02*
X016700Y001039D01*
X016700Y000940D02*
X016380Y000940D01*
X016282Y000842D02*
X016700Y000842D01*
X016700Y000743D02*
X000300Y000743D01*
X000300Y000842D02*
X001772Y000842D01*
X001673Y000940D02*
X000300Y000940D01*
X000300Y001039D02*
X001575Y001039D01*
X001476Y001137D02*
X000300Y001137D01*
X000300Y001236D02*
X001378Y001236D01*
X001279Y001334D02*
X000300Y001334D01*
X000300Y001433D02*
X001185Y001433D01*
X001185Y001531D02*
X000300Y001531D01*
X000300Y001630D02*
X001185Y001630D01*
X001185Y001728D02*
X000300Y001728D01*
X000300Y001827D02*
X000411Y001827D01*
X000350Y001925D02*
X000300Y001925D01*
X000300Y002024D02*
X000349Y002024D01*
X000300Y002122D02*
X000667Y002122D01*
X000667Y002024D02*
X000764Y002024D01*
X000764Y001925D02*
X000667Y001925D01*
X000667Y001827D02*
X000764Y001827D01*
X001019Y001827D02*
X001079Y001827D01*
X001585Y001728D02*
X002103Y001728D01*
X002106Y001630D02*
X001585Y001630D01*
X001648Y001531D02*
X002282Y001531D01*
X002381Y001433D02*
X001746Y001433D01*
X001845Y001334D02*
X003283Y001334D01*
X003382Y001236D02*
X001943Y001236D01*
X002103Y001827D02*
X001691Y001827D01*
X001751Y001925D02*
X002103Y001925D01*
X002103Y002024D02*
X001751Y002024D01*
X001751Y002122D02*
X002103Y002122D01*
X002134Y002221D02*
X001751Y002221D01*
X001751Y002319D02*
X002103Y002319D01*
X002103Y002418D02*
X001739Y002418D01*
X001703Y002516D02*
X002103Y002516D01*
X002103Y002615D02*
X001801Y002615D01*
X001900Y002713D02*
X002103Y002713D01*
X002103Y002812D02*
X001950Y002812D01*
X001950Y002910D02*
X002154Y002910D01*
X002250Y003009D02*
X001950Y003009D01*
X001236Y002615D02*
X000300Y002615D01*
X000300Y002516D02*
X001185Y002516D01*
X000764Y002418D02*
X000667Y002418D01*
X000369Y002418D02*
X000300Y002418D01*
X000300Y002319D02*
X000349Y002319D01*
X000349Y002221D02*
X000300Y002221D01*
X000667Y002221D02*
X000764Y002221D01*
X000764Y002319D02*
X000667Y002319D01*
D23*
X005750Y002246D03*
X006350Y001746D03*
X008150Y002346D03*
X008400Y001996D03*
X009550Y002146D03*
X008450Y002846D03*
X007250Y003146D03*
X005950Y003546D03*
X008050Y004446D03*
X010050Y004446D03*
X013501Y002195D03*
X010350Y001246D03*
X003450Y004346D03*
D24*
X010415Y003646D02*
X010450Y003712D01*
X010415Y003646D02*
X011150Y003646D01*
X011850Y002946D01*
X012450Y002946D01*
X013044Y002353D01*
X014950Y004259D01*
X014950Y005546D01*
X013950Y005546D02*
X013948Y005445D01*
X013948Y004935D01*
X012650Y003637D01*
X013044Y002353D02*
X013044Y002328D01*
D25*
X013176Y002195D01*
X013501Y002195D01*
M02*
