G75*
%MOIN*%
%OFA0B0*%
%FSLAX24Y24*%
%IPPOS*%
%LPD*%
%AMOC8*
5,1,8,0,0,1.08239X$1,22.5*
%
%ADD10R,0.0454X0.0493*%
%ADD11R,0.0320X0.0926*%
%ADD12R,0.0720X0.0720*%
%ADD13OC8,0.0720*%
%ADD14OC8,0.0660*%
%ADD15R,0.0454X0.0611*%
%ADD16R,0.0493X0.0454*%
%ADD17R,0.0532X0.0532*%
%ADD18R,0.0651X0.0690*%
%ADD19R,0.0375X0.0847*%
%ADD20R,0.0651X0.0651*%
%ADD21OC8,0.0651*%
D10*
X002450Y001912D03*
X002450Y002581D03*
X010450Y002312D03*
X010450Y002981D03*
X010450Y003712D03*
X010450Y004381D03*
D11*
X009750Y003727D03*
X009250Y003727D03*
X008750Y003727D03*
X008250Y003727D03*
X007750Y003727D03*
X007250Y003727D03*
X006750Y003727D03*
X006750Y001365D03*
X007250Y001365D03*
X007750Y001365D03*
X008250Y001365D03*
X008750Y001365D03*
X009250Y001365D03*
X009750Y001365D03*
D12*
X004750Y001546D03*
D13*
X003750Y001546D03*
X003750Y002546D03*
X004750Y002546D03*
X004750Y003546D03*
X003750Y003546D03*
D14*
X016050Y003246D03*
X016050Y002246D03*
X016050Y001246D03*
D15*
X001424Y004079D03*
X000676Y004079D03*
X001050Y003213D03*
D16*
X000715Y002146D03*
X001385Y002146D03*
X013015Y001246D03*
X013685Y001246D03*
D17*
X013044Y002328D03*
X012256Y002328D03*
D18*
X012650Y003637D03*
D19*
X009433Y004996D03*
X009000Y004996D03*
X008567Y004996D03*
D20*
X015950Y005546D03*
D21*
X014950Y005546D03*
X013950Y005546D03*
X012950Y005546D03*
X011950Y005546D03*
X010950Y005546D03*
X005950Y005546D03*
X004950Y005546D03*
X003950Y005546D03*
X002950Y005546D03*
X001950Y005546D03*
X000950Y005546D03*
M02*
