G75*
%MOIN*%
%OFA0B0*%
%FSLAX24Y24*%
%IPPOS*%
%LPD*%
%AMOC8*
5,1,8,0,0,1.08239X$1,22.5*
%
%ADD10C,0.0040*%
%ADD11C,0.0030*%
%ADD12C,0.0050*%
%ADD13C,0.0060*%
%ADD14C,0.0100*%
%ADD15C,0.0110*%
D10*
X002770Y003933D02*
X002770Y004114D01*
X002830Y004174D01*
X003070Y004174D01*
X003130Y004114D01*
X003130Y003933D01*
X002770Y003933D01*
X002770Y004302D02*
X002770Y004542D01*
X002830Y004542D01*
X003070Y004302D01*
X003130Y004302D01*
X003770Y004114D02*
X003770Y003933D01*
X004130Y003933D01*
X004130Y004114D01*
X004070Y004174D01*
X003830Y004174D01*
X003770Y004114D01*
X003950Y004302D02*
X003950Y004482D01*
X004010Y004542D01*
X004070Y004542D01*
X004130Y004482D01*
X004130Y004362D01*
X004070Y004302D01*
X003950Y004302D01*
X003830Y004422D01*
X003770Y004542D01*
X004770Y004542D02*
X004770Y004302D01*
X004950Y004302D01*
X004890Y004422D01*
X004890Y004482D01*
X004950Y004542D01*
X005070Y004542D01*
X005130Y004482D01*
X005130Y004362D01*
X005070Y004302D01*
X005070Y004174D02*
X004830Y004174D01*
X004770Y004114D01*
X004770Y003933D01*
X005130Y003933D01*
X005130Y004114D01*
X005070Y004174D01*
X005770Y004114D02*
X005770Y003933D01*
X006130Y003933D01*
X006130Y004114D01*
X006070Y004174D01*
X005830Y004174D01*
X005770Y004114D01*
X005950Y004302D02*
X005950Y004542D01*
X006130Y004482D02*
X005770Y004482D01*
X005950Y004302D01*
X002130Y004302D02*
X001890Y004302D01*
X001770Y004422D01*
X001890Y004542D01*
X002130Y004542D01*
X001950Y004542D02*
X001950Y004302D01*
X001130Y004302D02*
X000770Y004302D01*
X000950Y004362D02*
X001130Y004542D01*
X001010Y004302D02*
X000770Y004542D01*
X010770Y004542D02*
X010770Y004302D01*
X011130Y004302D01*
X011130Y004542D01*
X010950Y004422D02*
X010950Y004302D01*
X011770Y004302D02*
X012130Y004302D01*
X012010Y004422D01*
X012130Y004542D01*
X011770Y004542D01*
X012770Y004482D02*
X012770Y004362D01*
X012830Y004302D01*
X012890Y004302D01*
X012950Y004362D01*
X012950Y004482D01*
X013010Y004542D01*
X013070Y004542D01*
X013130Y004482D01*
X013130Y004362D01*
X013070Y004302D01*
X013130Y004174D02*
X013010Y004053D01*
X013010Y004114D02*
X013010Y003933D01*
X013130Y003933D02*
X012770Y003933D01*
X012770Y004114D01*
X012830Y004174D01*
X012950Y004174D01*
X013010Y004114D01*
X013770Y004174D02*
X014010Y004174D01*
X014130Y004053D01*
X014010Y003933D01*
X013770Y003933D01*
X013830Y004302D02*
X013770Y004362D01*
X013770Y004482D01*
X013830Y004542D01*
X014070Y004302D01*
X014130Y004362D01*
X014130Y004482D01*
X014070Y004542D01*
X013830Y004542D01*
X013830Y004302D02*
X014070Y004302D01*
X014770Y004302D02*
X014770Y004482D01*
X014830Y004542D01*
X015070Y004542D01*
X015130Y004482D01*
X015130Y004302D01*
X014770Y004302D01*
X014830Y004174D02*
X014770Y004114D01*
X014770Y003933D01*
X015130Y003933D01*
X015130Y004114D01*
X015070Y004174D01*
X014830Y004174D01*
X014770Y003805D02*
X015010Y003805D01*
X015130Y003685D01*
X015010Y003565D01*
X014770Y003565D01*
X015970Y003565D02*
X016210Y003565D01*
X016330Y003685D01*
X016210Y003805D01*
X015970Y003805D01*
X016030Y003933D02*
X016090Y003933D01*
X016150Y003993D01*
X016150Y004114D01*
X016210Y004174D01*
X016270Y004174D01*
X016330Y004114D01*
X016330Y003993D01*
X016270Y003933D01*
X016030Y003933D02*
X015970Y003993D01*
X015970Y004114D01*
X016030Y004174D01*
X016030Y004302D02*
X016090Y004302D01*
X016150Y004362D01*
X016150Y004482D01*
X016210Y004542D01*
X016270Y004542D01*
X016330Y004482D01*
X016330Y004362D01*
X016270Y004302D01*
X016030Y004302D02*
X015970Y004362D01*
X015970Y004482D01*
X016030Y004542D01*
X016470Y004970D02*
X016710Y004970D01*
X016590Y004970D02*
X016590Y005330D01*
X016470Y005210D01*
X012830Y004542D02*
X012770Y004482D01*
X012130Y004174D02*
X012010Y004053D01*
X012010Y004114D02*
X012010Y003933D01*
X012130Y003933D02*
X011770Y003933D01*
X011770Y004114D01*
X011830Y004174D01*
X011950Y004174D01*
X012010Y004114D01*
X011950Y003383D02*
X011830Y003383D01*
X011770Y003323D01*
X011770Y003143D01*
X012130Y003143D01*
X012010Y003143D02*
X012010Y003323D01*
X011950Y003383D01*
X012010Y003263D02*
X012130Y003383D01*
X011770Y003015D02*
X011770Y002775D01*
X011770Y002895D02*
X012130Y002895D01*
X012130Y002647D02*
X011770Y002647D01*
X011770Y002407D02*
X012130Y002647D01*
X012130Y002407D02*
X011770Y002407D01*
X011830Y002279D02*
X011770Y002218D01*
X011770Y002098D01*
X011830Y002038D01*
X012070Y002038D01*
X012130Y002098D01*
X012130Y002218D01*
X012070Y002279D01*
X011830Y002279D01*
X011830Y001910D02*
X011770Y001850D01*
X011770Y001730D01*
X011830Y001670D01*
X012070Y001670D01*
X012130Y001730D01*
X012130Y001850D01*
X012070Y001910D01*
X014365Y002730D02*
X014425Y002670D01*
X014545Y002670D01*
X014605Y002730D01*
X014605Y002850D01*
X014485Y002850D01*
X014365Y002970D02*
X014365Y002730D01*
X014733Y002670D02*
X014733Y003030D01*
X014974Y002670D01*
X014974Y003030D01*
X015102Y003030D02*
X015282Y003030D01*
X015342Y002970D01*
X015342Y002730D01*
X015282Y002670D01*
X015102Y002670D01*
X015102Y003030D01*
X014605Y002970D02*
X014545Y003030D01*
X014425Y003030D01*
X014365Y002970D01*
X014733Y002030D02*
X014733Y001850D01*
X014853Y001910D01*
X014914Y001910D01*
X014974Y001850D01*
X014974Y001730D01*
X014914Y001670D01*
X014793Y001670D01*
X014733Y001730D01*
X015102Y001790D02*
X015222Y001670D01*
X015342Y001790D01*
X015342Y002030D01*
X015102Y002030D02*
X015102Y001790D01*
X014974Y002030D02*
X014733Y002030D01*
X014733Y001030D02*
X014914Y001030D01*
X014974Y000970D01*
X014974Y000850D01*
X014914Y000790D01*
X014733Y000790D01*
X014853Y000790D02*
X014974Y000670D01*
X015102Y000670D02*
X015342Y001030D01*
X015102Y001030D02*
X015342Y000670D01*
X014733Y000670D02*
X014733Y001030D01*
X014605Y001030D02*
X014365Y000850D01*
X014605Y000670D01*
D11*
X000610Y000465D02*
X000465Y000465D01*
X000465Y000755D01*
X000465Y000658D02*
X000610Y000658D01*
X000658Y000610D01*
X000658Y000513D01*
X000610Y000465D01*
X000760Y000513D02*
X000808Y000465D01*
X000905Y000465D01*
X000953Y000513D01*
X000953Y000610D01*
X000905Y000658D01*
X000808Y000658D01*
X000760Y000610D01*
X000760Y000513D01*
X001103Y000513D02*
X001151Y000465D01*
X001103Y000513D02*
X001103Y000707D01*
X001151Y000658D02*
X001054Y000658D01*
X001251Y000610D02*
X001444Y000610D01*
X001545Y000658D02*
X001642Y000658D01*
X001594Y000707D02*
X001594Y000513D01*
X001642Y000465D01*
X001742Y000465D02*
X001742Y000755D01*
X001790Y000658D02*
X001887Y000658D01*
X001935Y000610D01*
X001935Y000465D01*
X002036Y000513D02*
X002085Y000465D01*
X002182Y000465D01*
X002230Y000513D01*
X002230Y000610D01*
X002182Y000658D01*
X002085Y000658D01*
X002036Y000610D01*
X002036Y000513D01*
X001790Y000658D02*
X001742Y000610D01*
X002331Y000658D02*
X002331Y000513D01*
X002380Y000465D01*
X002525Y000465D01*
X002525Y000658D01*
X002626Y000610D02*
X002626Y000513D01*
X002674Y000465D01*
X002819Y000465D01*
X002819Y000417D02*
X002819Y000658D01*
X002674Y000658D01*
X002626Y000610D01*
X002920Y000610D02*
X002969Y000658D01*
X003066Y000658D01*
X003114Y000610D01*
X003114Y000465D01*
X003263Y000513D02*
X003312Y000465D01*
X003263Y000513D02*
X003263Y000707D01*
X003215Y000658D02*
X003312Y000658D01*
X003412Y000610D02*
X003460Y000658D01*
X003605Y000658D01*
X003460Y000562D02*
X003412Y000610D01*
X003460Y000562D02*
X003557Y000562D01*
X003605Y000513D01*
X003557Y000465D01*
X003412Y000465D01*
X003706Y000465D02*
X003706Y000513D01*
X003755Y000513D01*
X003755Y000465D01*
X003706Y000465D01*
X003853Y000513D02*
X003902Y000465D01*
X004047Y000465D01*
X004148Y000513D02*
X004197Y000465D01*
X004293Y000465D01*
X004342Y000513D01*
X004342Y000610D01*
X004293Y000658D01*
X004197Y000658D01*
X004148Y000610D01*
X004148Y000513D01*
X003902Y000658D02*
X003853Y000610D01*
X003853Y000513D01*
X003902Y000658D02*
X004047Y000658D01*
X004443Y000658D02*
X004491Y000658D01*
X004540Y000610D01*
X004588Y000658D01*
X004636Y000610D01*
X004636Y000465D01*
X004540Y000465D02*
X004540Y000610D01*
X004443Y000658D02*
X004443Y000465D01*
X002920Y000465D02*
X002920Y000755D01*
X002721Y000965D02*
X002576Y000965D01*
X002528Y001013D01*
X002576Y001062D01*
X002721Y001062D01*
X002721Y001110D02*
X002721Y000965D01*
X002426Y001013D02*
X002378Y001062D01*
X002281Y001062D01*
X002233Y001110D01*
X002281Y001158D01*
X002426Y001158D01*
X002576Y001158D02*
X002673Y001158D01*
X002721Y001110D01*
X002426Y001013D02*
X002378Y000965D01*
X002233Y000965D01*
X002132Y001110D02*
X001938Y001110D01*
X001837Y001158D02*
X001837Y000917D01*
X001789Y000868D01*
X001740Y000868D01*
X001692Y000965D02*
X001837Y000965D01*
X001692Y000965D02*
X001644Y001013D01*
X001644Y001158D01*
X001542Y001110D02*
X001494Y001158D01*
X001349Y001158D01*
X001248Y001110D02*
X001054Y001110D01*
X000953Y001158D02*
X000808Y001158D01*
X000760Y001110D01*
X000760Y001013D01*
X000808Y000965D01*
X000953Y000965D01*
X000658Y000965D02*
X000513Y000965D01*
X000465Y001013D01*
X000465Y001110D01*
X000513Y001158D01*
X000658Y001158D01*
X001349Y001255D02*
X001349Y000965D01*
X001494Y000965D01*
X001542Y001013D01*
X001542Y001110D01*
X002771Y000368D02*
X002819Y000417D01*
X002771Y000368D02*
X002723Y000368D01*
X006045Y001876D02*
X006045Y002069D01*
X006093Y002170D02*
X006142Y002170D01*
X006190Y002219D01*
X006190Y002315D01*
X006238Y002364D01*
X006287Y002364D01*
X006335Y002315D01*
X006335Y002219D01*
X006287Y002170D01*
X006238Y002170D01*
X006190Y002219D01*
X006093Y002170D02*
X006045Y002219D01*
X006045Y002315D01*
X006093Y002364D01*
X006142Y002364D01*
X006190Y002315D01*
X006190Y002465D02*
X006190Y002658D01*
X006142Y002760D02*
X006045Y002856D01*
X006335Y002856D01*
X006335Y002760D02*
X006335Y002953D01*
X006335Y002610D02*
X006045Y002610D01*
X006190Y002465D01*
X006335Y001972D02*
X006045Y001972D01*
X003605Y002323D02*
X003412Y002517D01*
X003363Y002517D01*
X003315Y002468D01*
X003315Y002371D01*
X003363Y002323D01*
X003605Y002323D02*
X003605Y002517D01*
X003605Y002618D02*
X003412Y002811D01*
X003363Y002811D01*
X003315Y002763D01*
X003315Y002666D01*
X003363Y002618D01*
X003605Y002618D02*
X003605Y002811D01*
X003557Y002912D02*
X003363Y002912D01*
X003315Y002961D01*
X003315Y003057D01*
X003363Y003106D01*
X003557Y002912D01*
X003605Y002961D01*
X003605Y003057D01*
X003557Y003106D01*
X003363Y003106D01*
X007165Y004665D02*
X007165Y004955D01*
X007310Y004955D01*
X007358Y004907D01*
X007358Y004810D01*
X007310Y004762D01*
X007165Y004762D01*
X007262Y004762D02*
X007358Y004665D01*
X007460Y004713D02*
X007653Y004907D01*
X007653Y004713D01*
X007605Y004665D01*
X007508Y004665D01*
X007460Y004713D01*
X007460Y004907D01*
X007508Y004955D01*
X007605Y004955D01*
X007653Y004907D01*
X007902Y004858D02*
X007998Y004955D01*
X007998Y004665D01*
X007902Y004665D02*
X008095Y004665D01*
X007803Y004665D02*
X007754Y004665D01*
X007754Y004713D01*
X007803Y004713D01*
X007803Y004665D01*
X010765Y004006D02*
X010958Y003812D01*
X010910Y003861D02*
X011055Y004006D01*
X011055Y003812D02*
X010765Y003812D01*
X010813Y003711D02*
X011007Y003518D01*
X011055Y003566D01*
X011055Y003663D01*
X011007Y003711D01*
X010813Y003711D01*
X010765Y003663D01*
X010765Y003566D01*
X010813Y003518D01*
X011007Y003518D01*
X011055Y003417D02*
X011055Y003223D01*
X010862Y003223D02*
X010765Y003320D01*
X011055Y003320D01*
X010765Y002927D02*
X010765Y002733D01*
X011055Y002733D01*
X010910Y002733D02*
X010910Y002830D01*
X010862Y002632D02*
X011055Y002632D01*
X011055Y002487D01*
X011007Y002439D01*
X010862Y002439D01*
X011055Y002338D02*
X011055Y002144D01*
X011055Y002241D02*
X010765Y002241D01*
X010862Y002144D01*
X011007Y002045D02*
X011055Y002045D01*
X011055Y001997D01*
X011007Y001997D01*
X011007Y002045D01*
X011007Y001896D02*
X010813Y001896D01*
X011007Y001702D01*
X011055Y001750D01*
X011055Y001847D01*
X011007Y001896D01*
X010813Y001896D02*
X010765Y001847D01*
X010765Y001750D01*
X010813Y001702D01*
X011007Y001702D01*
X012923Y001358D02*
X013020Y001455D01*
X013020Y001165D01*
X012923Y001165D02*
X013117Y001165D01*
X013218Y001213D02*
X013411Y001407D01*
X013411Y001213D01*
X013363Y001165D01*
X013266Y001165D01*
X013218Y001213D01*
X013218Y001407D01*
X013266Y001455D01*
X013363Y001455D01*
X013411Y001407D01*
X013512Y001455D02*
X013512Y001165D01*
X013561Y001310D02*
X013706Y001165D01*
X013512Y001262D02*
X013706Y001455D01*
D12*
X009984Y002662D02*
X006516Y002662D01*
X009630Y002583D02*
X009748Y002386D01*
X009866Y002583D01*
X009630Y002583D01*
X006175Y001375D02*
X006175Y000925D01*
X006025Y000925D02*
X006325Y000925D01*
X006025Y001225D02*
X006175Y001375D01*
X005196Y001150D02*
X005198Y001187D01*
X005204Y001224D01*
X005213Y001259D01*
X005227Y001294D01*
X005243Y001327D01*
X005264Y001358D01*
X005287Y001387D01*
X005313Y001413D01*
X005342Y001436D01*
X005373Y001457D01*
X005406Y001473D01*
X005441Y001487D01*
X005476Y001496D01*
X005513Y001502D01*
X005550Y001504D01*
X005587Y001502D01*
X005624Y001496D01*
X005659Y001487D01*
X005694Y001473D01*
X005727Y001457D01*
X005758Y001436D01*
X005787Y001413D01*
X005813Y001387D01*
X005836Y001358D01*
X005857Y001327D01*
X005873Y001294D01*
X005887Y001259D01*
X005896Y001224D01*
X005902Y001187D01*
X005904Y001150D01*
X005902Y001113D01*
X005896Y001076D01*
X005887Y001041D01*
X005873Y001006D01*
X005857Y000973D01*
X005836Y000942D01*
X005813Y000913D01*
X005787Y000887D01*
X005758Y000864D01*
X005727Y000843D01*
X005694Y000827D01*
X005659Y000813D01*
X005624Y000804D01*
X005587Y000798D01*
X005550Y000796D01*
X005513Y000798D01*
X005476Y000804D01*
X005441Y000813D01*
X005406Y000827D01*
X005373Y000843D01*
X005342Y000864D01*
X005313Y000887D01*
X005287Y000913D01*
X005264Y000942D01*
X005243Y000973D01*
X005227Y001006D01*
X005213Y001041D01*
X005204Y001076D01*
X005198Y001113D01*
X005196Y001150D01*
X001740Y001640D02*
X001640Y001510D01*
X001420Y001510D01*
X001340Y001640D01*
X001740Y001640D01*
X001713Y001605D02*
X001362Y001605D01*
X001391Y001557D02*
X001676Y001557D01*
X008331Y004206D02*
X008331Y004994D01*
X008335Y005175D02*
X008219Y005175D01*
X008277Y005175D02*
X008277Y005409D01*
X008219Y005409D01*
X008087Y005409D02*
X008028Y005409D01*
X007912Y005292D01*
X007777Y005292D02*
X007777Y005350D01*
X007718Y005409D01*
X007602Y005409D01*
X007543Y005350D01*
X007543Y005233D01*
X007602Y005175D01*
X007718Y005175D01*
X007912Y005175D02*
X007912Y005409D01*
X007777Y005292D02*
X007543Y005292D01*
X007409Y005292D02*
X007409Y005233D01*
X007350Y005175D01*
X007233Y005175D01*
X007175Y005233D01*
X007350Y005350D02*
X007409Y005292D01*
X007350Y005350D02*
X007233Y005350D01*
X007175Y005409D01*
X007175Y005467D01*
X007233Y005525D01*
X007350Y005525D01*
X007409Y005467D01*
X008277Y005525D02*
X008277Y005584D01*
X008522Y005409D02*
X008639Y005409D01*
X008698Y005350D01*
X008698Y005175D01*
X008522Y005175D01*
X008464Y005233D01*
X008522Y005292D01*
X008698Y005292D01*
X008832Y005175D02*
X008949Y005175D01*
X008891Y005175D02*
X008891Y005525D01*
X008832Y005525D01*
X009078Y005525D02*
X009078Y005175D01*
X009311Y005175D01*
X009446Y005233D02*
X009505Y005175D01*
X009621Y005175D01*
X009680Y005233D01*
X009815Y005175D02*
X009990Y005175D01*
X010048Y005233D01*
X010048Y005467D01*
X009990Y005525D01*
X009815Y005525D01*
X009815Y005175D01*
X009446Y005233D02*
X009446Y005467D01*
X009505Y005525D01*
X009621Y005525D01*
X009680Y005467D01*
X009669Y004994D02*
X009669Y004206D01*
D13*
X009965Y003016D02*
X009982Y003015D01*
X009999Y003010D01*
X010014Y003003D01*
X010028Y002993D01*
X010040Y002981D01*
X010050Y002967D01*
X010057Y002952D01*
X010062Y002935D01*
X010063Y002918D01*
X010063Y001382D01*
X010062Y001365D01*
X010057Y001348D01*
X010050Y001333D01*
X010040Y001319D01*
X010028Y001307D01*
X010014Y001297D01*
X009999Y001290D01*
X009982Y001285D01*
X009965Y001284D01*
X006535Y001284D02*
X006518Y001285D01*
X006501Y001290D01*
X006486Y001297D01*
X006472Y001307D01*
X006460Y001319D01*
X006450Y001333D01*
X006443Y001348D01*
X006438Y001365D01*
X006437Y001382D01*
X006437Y002918D01*
X006438Y002935D01*
X006443Y002952D01*
X006450Y002967D01*
X006460Y002981D01*
X006472Y002993D01*
X006486Y003003D01*
X006501Y003010D01*
X006518Y003015D01*
X006535Y003016D01*
X015550Y003100D02*
X015550Y002600D01*
X015800Y002350D01*
X016300Y002350D01*
X016550Y002600D01*
X016550Y003100D01*
X016300Y003350D01*
X015800Y003350D01*
X015550Y003100D01*
X015800Y002350D02*
X015550Y002100D01*
X015550Y001600D01*
X015800Y001350D01*
X016300Y001350D01*
X016550Y001600D01*
X016550Y002100D01*
X016300Y002350D01*
X016300Y001350D02*
X016550Y001100D01*
X016550Y000600D01*
X016300Y000350D01*
X015800Y000350D01*
X015550Y000600D01*
X015550Y001100D01*
X015800Y001350D01*
D14*
X013521Y002493D02*
X013521Y003339D01*
X013285Y003339D01*
X012615Y003339D02*
X012379Y003339D01*
X012379Y002493D01*
X002671Y002392D02*
X002671Y002078D01*
X002377Y002027D01*
X002343Y001907D01*
X002289Y001795D01*
X002455Y001570D01*
X002240Y001355D01*
X002161Y001406D01*
X002161Y002200D01*
X002158Y002290D01*
X002140Y002378D01*
X002109Y002463D01*
X002063Y002541D01*
X002006Y002610D01*
X001938Y002669D01*
X001861Y002716D01*
X001778Y002750D01*
X001690Y002770D01*
X001690Y002780D01*
X001727Y002807D01*
X001756Y002842D01*
X001777Y002882D01*
X001788Y002926D01*
X001789Y002971D01*
X001780Y003016D01*
X001761Y003057D01*
X001733Y003093D01*
X001698Y003122D01*
X001657Y003142D01*
X001613Y003152D01*
X001567Y003152D01*
X001523Y003142D01*
X001482Y003122D01*
X001447Y003093D01*
X001419Y003057D01*
X001400Y003016D01*
X001391Y002971D01*
X001392Y002926D01*
X001403Y002882D01*
X001424Y002842D01*
X001453Y002807D01*
X001490Y002780D01*
X001400Y002760D01*
X001315Y002726D01*
X001237Y002678D01*
X001168Y002618D01*
X001109Y002547D01*
X001063Y002468D01*
X001030Y002382D01*
X001012Y002292D01*
X001009Y002200D01*
X001009Y001426D01*
X000920Y001355D01*
X000695Y001580D01*
X000871Y001805D01*
X000830Y001878D01*
X000797Y001956D01*
X000773Y002037D01*
X000489Y002078D01*
X000489Y002402D01*
X000783Y002433D01*
X000823Y002548D01*
X000881Y002655D01*
X000705Y002900D01*
X000910Y003105D01*
X000910Y003105D01*
X001175Y002929D01*
X001277Y002982D01*
X001387Y003017D01*
X001428Y003321D01*
X001742Y003321D01*
X001783Y003037D01*
X001898Y002997D01*
X002005Y002939D01*
X002240Y003105D01*
X002240Y003105D01*
X002465Y002890D01*
X002289Y002645D01*
X002342Y002538D01*
X002377Y002423D01*
X002671Y002392D01*
X002671Y002317D02*
X002152Y002317D01*
X002126Y002416D02*
X002451Y002416D01*
X002350Y002514D02*
X002079Y002514D01*
X002003Y002613D02*
X002305Y002613D01*
X002336Y002711D02*
X001870Y002711D01*
X001729Y002810D02*
X002407Y002810D01*
X002446Y002908D02*
X001784Y002908D01*
X001782Y003007D02*
X001872Y003007D01*
X001774Y003105D02*
X001718Y003105D01*
X001759Y003204D02*
X001412Y003204D01*
X001425Y003302D02*
X001745Y003302D01*
X001462Y003105D02*
X001399Y003105D01*
X001398Y003007D02*
X001353Y003007D01*
X001396Y002908D02*
X000713Y002908D01*
X000812Y003007D02*
X001058Y003007D01*
X000770Y002810D02*
X001451Y002810D01*
X001291Y002711D02*
X000841Y002711D01*
X000858Y002613D02*
X001163Y002613D01*
X001090Y002514D02*
X000811Y002514D01*
X000614Y002416D02*
X001043Y002416D01*
X001017Y002317D02*
X000489Y002317D01*
X000489Y002219D02*
X001010Y002219D01*
X001009Y002120D02*
X000489Y002120D01*
X000777Y002022D02*
X001009Y002022D01*
X001009Y001923D02*
X000811Y001923D01*
X000860Y001825D02*
X001009Y001825D01*
X001009Y001726D02*
X000809Y001726D01*
X000732Y001628D02*
X001009Y001628D01*
X001009Y001529D02*
X000746Y001529D01*
X000845Y001431D02*
X001009Y001431D01*
X002161Y001431D02*
X002315Y001431D01*
X002414Y001529D02*
X002161Y001529D01*
X002161Y001628D02*
X002413Y001628D01*
X002340Y001726D02*
X002161Y001726D01*
X002161Y001825D02*
X002303Y001825D01*
X002347Y001923D02*
X002161Y001923D01*
X002161Y002022D02*
X002376Y002022D01*
X002161Y002120D02*
X002671Y002120D01*
X002671Y002219D02*
X002160Y002219D01*
X002101Y003007D02*
X002343Y003007D01*
D15*
X001580Y002050D02*
X001591Y002075D01*
X001605Y002098D01*
X001623Y002119D01*
X001643Y002137D01*
X001665Y002153D01*
X001689Y002165D01*
X001715Y002173D01*
X001742Y002178D01*
X001769Y002179D01*
X001796Y002176D01*
X001822Y002170D01*
X001848Y002160D01*
X001871Y002146D01*
X001893Y002129D01*
X001911Y002110D01*
X001927Y002088D01*
X001940Y002064D01*
X001949Y002039D01*
X001955Y002012D01*
X001957Y001985D01*
X001955Y001958D01*
X001949Y001931D01*
X001940Y001906D01*
X001927Y001882D01*
X001911Y001860D01*
X001893Y001841D01*
X001871Y001824D01*
X001848Y001810D01*
X001822Y001800D01*
X001796Y001794D01*
X001769Y001791D01*
X001742Y001792D01*
X001715Y001797D01*
X001689Y001805D01*
X001665Y001817D01*
X001643Y001833D01*
X001623Y001851D01*
X001605Y001872D01*
X001591Y001895D01*
X001580Y001920D01*
X001575Y001963D02*
X001577Y001986D01*
X001583Y002008D01*
X001592Y002030D01*
X001605Y002049D01*
X001620Y002066D01*
X001638Y002080D01*
X001659Y002091D01*
X001681Y002099D01*
X001703Y002103D01*
X001727Y002103D01*
X001749Y002099D01*
X001771Y002091D01*
X001792Y002080D01*
X001810Y002066D01*
X001825Y002049D01*
X001838Y002030D01*
X001847Y002008D01*
X001853Y001986D01*
X001855Y001963D01*
X001853Y001940D01*
X001847Y001918D01*
X001838Y001896D01*
X001825Y001877D01*
X001810Y001860D01*
X001792Y001846D01*
X001771Y001835D01*
X001749Y001827D01*
X001727Y001823D01*
X001703Y001823D01*
X001681Y001827D01*
X001659Y001835D01*
X001638Y001846D01*
X001620Y001860D01*
X001605Y001877D01*
X001592Y001896D01*
X001583Y001918D01*
X001577Y001940D01*
X001575Y001963D01*
X001285Y001963D02*
X001287Y001986D01*
X001293Y002008D01*
X001302Y002030D01*
X001315Y002049D01*
X001330Y002066D01*
X001348Y002080D01*
X001369Y002091D01*
X001391Y002099D01*
X001413Y002103D01*
X001437Y002103D01*
X001459Y002099D01*
X001481Y002091D01*
X001502Y002080D01*
X001520Y002066D01*
X001535Y002049D01*
X001548Y002030D01*
X001557Y002008D01*
X001563Y001986D01*
X001565Y001963D01*
X001563Y001940D01*
X001557Y001918D01*
X001548Y001896D01*
X001535Y001877D01*
X001520Y001860D01*
X001502Y001846D01*
X001481Y001835D01*
X001459Y001827D01*
X001437Y001823D01*
X001413Y001823D01*
X001391Y001827D01*
X001369Y001835D01*
X001348Y001846D01*
X001330Y001860D01*
X001315Y001877D01*
X001302Y001896D01*
X001293Y001918D01*
X001287Y001940D01*
X001285Y001963D01*
X001570Y001920D02*
X001559Y001895D01*
X001545Y001872D01*
X001527Y001851D01*
X001507Y001833D01*
X001485Y001817D01*
X001461Y001805D01*
X001435Y001797D01*
X001408Y001792D01*
X001381Y001791D01*
X001354Y001794D01*
X001328Y001800D01*
X001302Y001810D01*
X001279Y001824D01*
X001257Y001841D01*
X001239Y001860D01*
X001223Y001882D01*
X001210Y001906D01*
X001201Y001931D01*
X001195Y001958D01*
X001193Y001985D01*
X001195Y002012D01*
X001201Y002039D01*
X001210Y002064D01*
X001223Y002088D01*
X001239Y002110D01*
X001257Y002129D01*
X001279Y002146D01*
X001302Y002160D01*
X001328Y002170D01*
X001354Y002176D01*
X001381Y002179D01*
X001408Y002178D01*
X001435Y002173D01*
X001461Y002165D01*
X001485Y002153D01*
X001507Y002137D01*
X001527Y002119D01*
X001545Y002098D01*
X001559Y002075D01*
X001570Y002050D01*
M02*
