G75*
%MOIN*%
%OFA0B0*%
%FSLAX24Y24*%
%IPPOS*%
%LPD*%
%AMOC8*
5,1,8,0,0,1.08239X$1,22.5*
%
%ADD10R,0.0709X0.0630*%
%ADD11R,0.0660X0.0660*%
%ADD12OC8,0.0660*%
%ADD13OC8,0.0600*%
%ADD14R,0.0591X0.0591*%
%ADD15OC8,0.0591*%
%ADD16C,0.0100*%
%ADD17C,0.0270*%
%ADD18C,0.0160*%
D10*
X014850Y002195D03*
X014850Y003297D03*
D11*
X004750Y001546D03*
D12*
X003750Y001546D03*
X003750Y002546D03*
X004750Y002546D03*
X004750Y003546D03*
X003750Y003546D03*
D13*
X016050Y003246D03*
X016050Y002246D03*
X016050Y001246D03*
D14*
X015950Y005546D03*
D15*
X014950Y005546D03*
X013950Y005546D03*
X012950Y005546D03*
X011950Y005546D03*
X010950Y005546D03*
X005950Y005546D03*
X004950Y005546D03*
X003950Y005546D03*
X002950Y005546D03*
X001950Y005546D03*
X000950Y005546D03*
D16*
X000300Y005996D02*
X000300Y000696D01*
X016700Y000696D01*
X016700Y005996D01*
X000300Y005996D01*
X000300Y005964D02*
X000738Y005964D01*
X000766Y005992D02*
X000505Y005731D01*
X000505Y005362D01*
X000766Y005101D01*
X001134Y005101D01*
X001395Y005362D01*
X001395Y005731D01*
X001134Y005992D01*
X000766Y005992D01*
X000639Y005865D02*
X000300Y005865D01*
X000300Y005767D02*
X000541Y005767D01*
X000505Y005668D02*
X000300Y005668D01*
X000300Y005570D02*
X000505Y005570D01*
X000505Y005471D02*
X000300Y005471D01*
X000300Y005373D02*
X000505Y005373D01*
X000592Y005274D02*
X000300Y005274D01*
X000300Y005176D02*
X000691Y005176D01*
X000300Y005077D02*
X010248Y005077D01*
X010248Y005044D02*
X010248Y004962D01*
X010249Y004961D01*
X010250Y004846D01*
X010250Y004649D01*
X010211Y004688D01*
X010107Y004731D01*
X009993Y004731D01*
X009889Y004688D01*
X009847Y004646D01*
X008253Y004646D01*
X008211Y004688D01*
X008107Y004731D01*
X007993Y004731D01*
X007889Y004688D01*
X007847Y004646D01*
X006767Y004646D01*
X006650Y004529D01*
X005952Y003831D01*
X005893Y003831D01*
X005789Y003788D01*
X005708Y003708D01*
X005665Y003603D01*
X005665Y003490D01*
X005708Y003385D01*
X005789Y003305D01*
X005893Y003261D01*
X006007Y003261D01*
X006111Y003305D01*
X006192Y003385D01*
X006235Y003490D01*
X006235Y003548D01*
X006933Y004246D01*
X007847Y004246D01*
X007889Y004205D01*
X007993Y004161D01*
X008107Y004161D01*
X008211Y004205D01*
X008253Y004246D01*
X009847Y004246D01*
X009889Y004205D01*
X009993Y004161D01*
X010107Y004161D01*
X010211Y004205D01*
X010250Y004243D01*
X010250Y004129D01*
X008667Y002546D01*
X008353Y002546D01*
X008311Y002588D01*
X008207Y002631D01*
X008093Y002631D01*
X007989Y002588D01*
X007908Y002508D01*
X007865Y002403D01*
X007865Y002290D01*
X007908Y002185D01*
X007989Y002105D01*
X008093Y002061D01*
X008118Y002061D01*
X008115Y002053D01*
X008115Y001940D01*
X008158Y001835D01*
X008239Y001755D01*
X008343Y001711D01*
X008457Y001711D01*
X008561Y001755D01*
X008603Y001796D01*
X008917Y001796D01*
X009550Y001163D01*
X009667Y001046D01*
X010147Y001046D01*
X010189Y001005D01*
X010293Y000961D01*
X010407Y000961D01*
X010511Y001005D01*
X010592Y001085D01*
X010635Y001190D01*
X010635Y001303D01*
X010592Y001408D01*
X010511Y001488D01*
X010407Y001531D01*
X010293Y001531D01*
X010189Y001488D01*
X010147Y001446D01*
X009833Y001446D01*
X009083Y002196D01*
X008883Y002196D01*
X008950Y002263D01*
X010650Y003963D01*
X010650Y004764D01*
X010651Y004765D01*
X010650Y004847D01*
X010650Y004929D01*
X010649Y004930D01*
X010649Y004963D01*
X010788Y005101D01*
X011134Y005101D01*
X011395Y005362D01*
X011395Y005731D01*
X011134Y005992D01*
X010766Y005992D01*
X010505Y005731D01*
X010505Y005384D01*
X010365Y005244D01*
X010364Y005244D01*
X010306Y005186D01*
X010248Y005128D01*
X010248Y005127D01*
X010248Y005126D01*
X010248Y005044D01*
X010248Y004979D02*
X000300Y004979D01*
X000300Y004880D02*
X010250Y004880D01*
X010450Y004846D02*
X010450Y004046D01*
X008750Y002346D01*
X008150Y002346D01*
X007865Y002319D02*
X007706Y002319D01*
X007607Y002221D02*
X007893Y002221D01*
X007971Y002122D02*
X007509Y002122D01*
X007410Y002024D02*
X008115Y002024D01*
X008121Y001925D02*
X007312Y001925D01*
X007213Y001827D02*
X008166Y001827D01*
X008302Y001728D02*
X007115Y001728D01*
X006850Y001746D02*
X007950Y002846D01*
X008450Y002846D01*
X008703Y002713D02*
X008834Y002713D01*
X008735Y002790D02*
X008692Y002685D01*
X008611Y002605D01*
X008507Y002561D01*
X008393Y002561D01*
X008289Y002605D01*
X008247Y002646D01*
X008033Y002646D01*
X006933Y001546D01*
X006553Y001546D01*
X006511Y001505D01*
X006407Y001461D01*
X006293Y001461D01*
X006189Y001505D01*
X006108Y001585D01*
X006068Y001682D01*
X005850Y001463D01*
X005733Y001346D01*
X005230Y001346D01*
X005230Y001154D01*
X005142Y001066D01*
X004358Y001066D01*
X004270Y001154D01*
X004270Y001938D01*
X004358Y002026D01*
X005142Y002026D01*
X005230Y001938D01*
X005230Y001746D01*
X005567Y001746D01*
X005782Y001961D01*
X005693Y001961D01*
X005589Y002005D01*
X005508Y002085D01*
X005465Y002190D01*
X005465Y002248D01*
X005367Y002346D01*
X005250Y002463D01*
X005250Y003863D01*
X004967Y004146D01*
X003653Y004146D01*
X003611Y004105D01*
X003507Y004061D01*
X003393Y004061D01*
X003289Y004105D01*
X003208Y004185D01*
X003165Y004290D01*
X003165Y004403D01*
X003208Y004508D01*
X003289Y004588D01*
X003393Y004631D01*
X003507Y004631D01*
X003611Y004588D01*
X003653Y004546D01*
X005133Y004546D01*
X005250Y004429D01*
X005650Y004029D01*
X005650Y002629D01*
X005748Y002531D01*
X005807Y002531D01*
X005911Y002488D01*
X005992Y002408D01*
X006035Y002303D01*
X006035Y002214D01*
X006965Y003144D01*
X006965Y003203D01*
X007008Y003308D01*
X007089Y003388D01*
X007193Y003431D01*
X007307Y003431D01*
X007411Y003388D01*
X007492Y003308D01*
X007535Y003203D01*
X007535Y003090D01*
X007492Y002985D01*
X007411Y002905D01*
X007307Y002861D01*
X007248Y002861D01*
X006415Y002028D01*
X006511Y001988D01*
X006553Y001946D01*
X006767Y001946D01*
X007750Y002929D01*
X007750Y002929D01*
X007867Y003046D01*
X008247Y003046D01*
X008289Y003088D01*
X008393Y003131D01*
X008507Y003131D01*
X008611Y003088D01*
X008692Y003008D01*
X008735Y002903D01*
X008735Y002790D01*
X008735Y002812D02*
X008933Y002812D01*
X009031Y002910D02*
X008732Y002910D01*
X008691Y003009D02*
X009130Y003009D01*
X009228Y003107D02*
X008565Y003107D01*
X008335Y003107D02*
X007535Y003107D01*
X007534Y003206D02*
X009327Y003206D01*
X009425Y003304D02*
X007493Y003304D01*
X007375Y003403D02*
X009524Y003403D01*
X009622Y003501D02*
X006235Y003501D01*
X006199Y003403D02*
X007125Y003403D01*
X007007Y003304D02*
X006111Y003304D01*
X005789Y003304D02*
X005650Y003304D01*
X005650Y003206D02*
X006966Y003206D01*
X006928Y003107D02*
X005650Y003107D01*
X005650Y003009D02*
X006830Y003009D01*
X006731Y002910D02*
X005650Y002910D01*
X005650Y002812D02*
X006633Y002812D01*
X006534Y002713D02*
X005650Y002713D01*
X005664Y002615D02*
X006436Y002615D01*
X006337Y002516D02*
X005843Y002516D01*
X005982Y002418D02*
X006239Y002418D01*
X006140Y002319D02*
X006028Y002319D01*
X006035Y002221D02*
X006042Y002221D01*
X005750Y002246D02*
X005450Y002546D01*
X005450Y003946D01*
X005050Y004346D01*
X003450Y004346D01*
X003200Y004486D02*
X000300Y004486D01*
X000300Y004585D02*
X003285Y004585D01*
X003615Y004585D02*
X006706Y004585D01*
X006607Y004486D02*
X005193Y004486D01*
X005291Y004388D02*
X006509Y004388D01*
X006410Y004289D02*
X005390Y004289D01*
X005488Y004191D02*
X006312Y004191D01*
X006213Y004092D02*
X005587Y004092D01*
X005650Y003994D02*
X006115Y003994D01*
X006016Y003895D02*
X005650Y003895D01*
X005650Y003797D02*
X005810Y003797D01*
X005704Y003698D02*
X005650Y003698D01*
X005650Y003600D02*
X005665Y003600D01*
X005950Y003546D02*
X006850Y004446D01*
X008050Y004446D01*
X010050Y004446D01*
X010178Y004191D02*
X010250Y004191D01*
X010213Y004092D02*
X006779Y004092D01*
X006680Y003994D02*
X010115Y003994D01*
X010016Y003895D02*
X006582Y003895D01*
X006483Y003797D02*
X009918Y003797D01*
X009819Y003698D02*
X006385Y003698D01*
X006286Y003600D02*
X009721Y003600D01*
X010188Y003501D02*
X010622Y003501D01*
X010524Y003403D02*
X010089Y003403D01*
X009991Y003304D02*
X010425Y003304D01*
X010327Y003206D02*
X009892Y003206D01*
X009794Y003107D02*
X010228Y003107D01*
X010130Y003009D02*
X009695Y003009D01*
X009597Y002910D02*
X010031Y002910D01*
X009933Y002812D02*
X009498Y002812D01*
X009400Y002713D02*
X009834Y002713D01*
X009736Y002615D02*
X009301Y002615D01*
X009203Y002516D02*
X009637Y002516D01*
X009552Y002431D02*
X009493Y002431D01*
X009389Y002388D01*
X009308Y002308D01*
X009265Y002203D01*
X009265Y002090D01*
X009308Y001985D01*
X009389Y001905D01*
X009493Y001861D01*
X009607Y001861D01*
X009711Y001905D01*
X009792Y001985D01*
X009835Y002090D01*
X009835Y002148D01*
X012788Y005101D01*
X013134Y005101D01*
X013395Y005362D01*
X013395Y005731D01*
X013134Y005992D01*
X012766Y005992D01*
X012505Y005731D01*
X012505Y005384D01*
X009552Y002431D01*
X009461Y002418D02*
X009104Y002418D01*
X009006Y002319D02*
X009320Y002319D01*
X009272Y002221D02*
X008907Y002221D01*
X009157Y002122D02*
X009265Y002122D01*
X009255Y002024D02*
X009292Y002024D01*
X009354Y001925D02*
X009368Y001925D01*
X009452Y001827D02*
X014346Y001827D01*
X014346Y001818D02*
X014434Y001730D01*
X015266Y001730D01*
X015354Y001818D01*
X015354Y002016D01*
X015644Y002016D01*
X015864Y001796D01*
X016236Y001796D01*
X016500Y002060D01*
X016500Y002433D01*
X016236Y002696D01*
X015864Y002696D01*
X015644Y002476D01*
X015354Y002476D01*
X015354Y002572D01*
X015266Y002660D01*
X014434Y002660D01*
X014346Y002572D01*
X014346Y002425D01*
X013674Y002425D01*
X013663Y002437D01*
X013558Y002480D01*
X013444Y002480D01*
X013340Y002437D01*
X013260Y002357D01*
X013216Y002252D01*
X013216Y002138D01*
X013260Y002034D01*
X013340Y001953D01*
X013444Y001910D01*
X013558Y001910D01*
X013663Y001953D01*
X013674Y001965D01*
X014346Y001965D01*
X014346Y001818D01*
X014346Y001925D02*
X013595Y001925D01*
X013408Y001925D02*
X009732Y001925D01*
X009808Y002024D02*
X013269Y002024D01*
X013223Y002122D02*
X009835Y002122D01*
X009550Y002146D02*
X012950Y005546D01*
X012950Y005547D01*
X012505Y005570D02*
X011998Y005570D01*
X011998Y005595D02*
X012395Y005595D01*
X012395Y005731D01*
X012134Y005992D01*
X011998Y005992D01*
X011998Y005595D01*
X011902Y005595D01*
X011902Y005992D01*
X011766Y005992D01*
X011505Y005731D01*
X011505Y005595D01*
X011902Y005595D01*
X011902Y005498D01*
X011998Y005498D01*
X011998Y005101D01*
X012134Y005101D01*
X012395Y005362D01*
X012395Y005498D01*
X011998Y005498D01*
X011998Y005595D01*
X011902Y005570D02*
X011395Y005570D01*
X011505Y005498D02*
X011505Y005362D01*
X011766Y005101D01*
X011902Y005101D01*
X011902Y005498D01*
X011505Y005498D01*
X011505Y005471D02*
X011395Y005471D01*
X011395Y005373D02*
X011505Y005373D01*
X011592Y005274D02*
X011308Y005274D01*
X011209Y005176D02*
X011691Y005176D01*
X011902Y005176D02*
X011998Y005176D01*
X011998Y005274D02*
X011902Y005274D01*
X011902Y005373D02*
X011998Y005373D01*
X011998Y005471D02*
X011902Y005471D01*
X012308Y005274D02*
X012395Y005274D01*
X012297Y005176D02*
X012209Y005176D01*
X012198Y005077D02*
X010764Y005077D01*
X010665Y004979D02*
X012100Y004979D01*
X012001Y004880D02*
X010650Y004880D01*
X010450Y004846D02*
X010448Y005045D01*
X010950Y005546D01*
X011395Y005668D02*
X011505Y005668D01*
X011541Y005767D02*
X011359Y005767D01*
X011261Y005865D02*
X011639Y005865D01*
X011738Y005964D02*
X011162Y005964D01*
X010738Y005964D02*
X006162Y005964D01*
X006134Y005992D02*
X005766Y005992D01*
X005505Y005731D01*
X005505Y005362D01*
X005766Y005101D01*
X006134Y005101D01*
X006395Y005362D01*
X006395Y005731D01*
X006134Y005992D01*
X006261Y005865D02*
X010639Y005865D01*
X010541Y005767D02*
X006359Y005767D01*
X006395Y005668D02*
X010505Y005668D01*
X010505Y005570D02*
X006395Y005570D01*
X006395Y005471D02*
X010505Y005471D01*
X010494Y005373D02*
X006395Y005373D01*
X006308Y005274D02*
X010395Y005274D01*
X010297Y005176D02*
X006209Y005176D01*
X005691Y005176D02*
X005209Y005176D01*
X005134Y005101D02*
X005395Y005362D01*
X005395Y005731D01*
X005134Y005992D01*
X004766Y005992D01*
X004505Y005731D01*
X004505Y005362D01*
X004766Y005101D01*
X005134Y005101D01*
X005308Y005274D02*
X005592Y005274D01*
X005505Y005373D02*
X005395Y005373D01*
X005395Y005471D02*
X005505Y005471D01*
X005505Y005570D02*
X005395Y005570D01*
X005395Y005668D02*
X005505Y005668D01*
X005541Y005767D02*
X005359Y005767D01*
X005261Y005865D02*
X005639Y005865D01*
X005738Y005964D02*
X005162Y005964D01*
X004738Y005964D02*
X004162Y005964D01*
X004134Y005992D02*
X003766Y005992D01*
X003505Y005731D01*
X003505Y005362D01*
X003766Y005101D01*
X004134Y005101D01*
X004395Y005362D01*
X004395Y005731D01*
X004134Y005992D01*
X004261Y005865D02*
X004639Y005865D01*
X004541Y005767D02*
X004359Y005767D01*
X004395Y005668D02*
X004505Y005668D01*
X004505Y005570D02*
X004395Y005570D01*
X004395Y005471D02*
X004505Y005471D01*
X004505Y005373D02*
X004395Y005373D01*
X004308Y005274D02*
X004592Y005274D01*
X004691Y005176D02*
X004209Y005176D01*
X003691Y005176D02*
X003209Y005176D01*
X003134Y005101D02*
X003395Y005362D01*
X003395Y005731D01*
X003134Y005992D01*
X002766Y005992D01*
X002505Y005731D01*
X002505Y005362D01*
X002766Y005101D01*
X003134Y005101D01*
X003308Y005274D02*
X003592Y005274D01*
X003505Y005373D02*
X003395Y005373D01*
X003395Y005471D02*
X003505Y005471D01*
X003505Y005570D02*
X003395Y005570D01*
X003395Y005668D02*
X003505Y005668D01*
X003541Y005767D02*
X003359Y005767D01*
X003261Y005865D02*
X003639Y005865D01*
X003738Y005964D02*
X003162Y005964D01*
X002738Y005964D02*
X002162Y005964D01*
X002134Y005992D02*
X001766Y005992D01*
X001505Y005731D01*
X001505Y005362D01*
X001766Y005101D01*
X002134Y005101D01*
X002395Y005362D01*
X002395Y005731D01*
X002134Y005992D01*
X002261Y005865D02*
X002639Y005865D01*
X002541Y005767D02*
X002359Y005767D01*
X002395Y005668D02*
X002505Y005668D01*
X002505Y005570D02*
X002395Y005570D01*
X002395Y005471D02*
X002505Y005471D01*
X002505Y005373D02*
X002395Y005373D01*
X002308Y005274D02*
X002592Y005274D01*
X002691Y005176D02*
X002209Y005176D01*
X001691Y005176D02*
X001209Y005176D01*
X001308Y005274D02*
X001592Y005274D01*
X001505Y005373D02*
X001395Y005373D01*
X001395Y005471D02*
X001505Y005471D01*
X001505Y005570D02*
X001395Y005570D01*
X001395Y005668D02*
X001505Y005668D01*
X001541Y005767D02*
X001359Y005767D01*
X001261Y005865D02*
X001639Y005865D01*
X001738Y005964D02*
X001162Y005964D01*
X000300Y004782D02*
X010250Y004782D01*
X010250Y004683D02*
X010216Y004683D01*
X009884Y004683D02*
X008216Y004683D01*
X007884Y004683D02*
X000300Y004683D01*
X000300Y004388D02*
X003165Y004388D01*
X003165Y004289D02*
X000300Y004289D01*
X000300Y004191D02*
X003206Y004191D01*
X003318Y004092D02*
X000300Y004092D01*
X000300Y003994D02*
X003519Y003994D01*
X003551Y004026D02*
X003270Y003745D01*
X003270Y003596D01*
X003700Y003596D01*
X003700Y003496D01*
X003800Y003496D01*
X003800Y003066D01*
X003949Y003066D01*
X004230Y003347D01*
X004230Y003496D01*
X003800Y003496D01*
X003800Y003596D01*
X004230Y003596D01*
X004230Y003745D01*
X003949Y004026D01*
X003800Y004026D01*
X003800Y003596D01*
X003700Y003596D01*
X003700Y004026D01*
X003551Y004026D01*
X003582Y004092D02*
X005021Y004092D01*
X004949Y004026D02*
X004551Y004026D01*
X004270Y003745D01*
X004270Y003347D01*
X004551Y003066D01*
X004949Y003066D01*
X005230Y003347D01*
X005230Y003745D01*
X004949Y004026D01*
X004981Y003994D02*
X005120Y003994D01*
X005080Y003895D02*
X005218Y003895D01*
X005250Y003797D02*
X005178Y003797D01*
X005230Y003698D02*
X005250Y003698D01*
X005250Y003600D02*
X005230Y003600D01*
X005230Y003501D02*
X005250Y003501D01*
X005250Y003403D02*
X005230Y003403D01*
X005250Y003304D02*
X005187Y003304D01*
X005250Y003206D02*
X005088Y003206D01*
X004990Y003107D02*
X005250Y003107D01*
X004949Y003026D02*
X004551Y003026D01*
X004270Y002745D01*
X004270Y002347D01*
X004551Y002066D01*
X004949Y002066D01*
X005230Y002347D01*
X005230Y002745D01*
X004949Y003026D01*
X004966Y003009D02*
X005250Y003009D01*
X005250Y002910D02*
X005065Y002910D01*
X005163Y002812D02*
X005250Y002812D01*
X005250Y002713D02*
X005230Y002713D01*
X005230Y002615D02*
X005250Y002615D01*
X005250Y002516D02*
X005230Y002516D01*
X005230Y002418D02*
X005296Y002418D01*
X005202Y002319D02*
X005394Y002319D01*
X005465Y002221D02*
X005103Y002221D01*
X005005Y002122D02*
X005493Y002122D01*
X005569Y002024D02*
X005145Y002024D01*
X005230Y001925D02*
X005746Y001925D01*
X005648Y001827D02*
X005230Y001827D01*
X004495Y002122D02*
X004005Y002122D01*
X003949Y002066D02*
X004230Y002347D01*
X004230Y002745D01*
X003949Y003026D01*
X003551Y003026D01*
X003270Y002745D01*
X003270Y002347D01*
X003551Y002066D01*
X003949Y002066D01*
X003949Y002026D02*
X003551Y002026D01*
X003270Y001745D01*
X003270Y001347D01*
X003551Y001066D01*
X003949Y001066D01*
X004230Y001347D01*
X004230Y001745D01*
X003949Y002026D01*
X003951Y002024D02*
X004355Y002024D01*
X004270Y001925D02*
X004050Y001925D01*
X004148Y001827D02*
X004270Y001827D01*
X004270Y001728D02*
X004230Y001728D01*
X004230Y001630D02*
X004270Y001630D01*
X004270Y001531D02*
X004230Y001531D01*
X004230Y001433D02*
X004270Y001433D01*
X004270Y001334D02*
X004217Y001334D01*
X004270Y001236D02*
X004118Y001236D01*
X004020Y001137D02*
X004287Y001137D01*
X003480Y001137D02*
X000300Y001137D01*
X000300Y001236D02*
X003382Y001236D01*
X003283Y001334D02*
X000300Y001334D01*
X000300Y001433D02*
X003270Y001433D01*
X003270Y001531D02*
X000300Y001531D01*
X000300Y001630D02*
X003270Y001630D01*
X003270Y001728D02*
X000300Y001728D01*
X000300Y001827D02*
X003352Y001827D01*
X003450Y001925D02*
X000300Y001925D01*
X000300Y002024D02*
X003549Y002024D01*
X003495Y002122D02*
X000300Y002122D01*
X000300Y002221D02*
X003397Y002221D01*
X003298Y002319D02*
X000300Y002319D01*
X000300Y002418D02*
X003270Y002418D01*
X003270Y002516D02*
X000300Y002516D01*
X000300Y002615D02*
X003270Y002615D01*
X003270Y002713D02*
X000300Y002713D01*
X000300Y002812D02*
X003337Y002812D01*
X003435Y002910D02*
X000300Y002910D01*
X000300Y003009D02*
X003534Y003009D01*
X003551Y003066D02*
X003270Y003347D01*
X003270Y003496D01*
X003700Y003496D01*
X003700Y003066D01*
X003551Y003066D01*
X003510Y003107D02*
X000300Y003107D01*
X000300Y003206D02*
X003412Y003206D01*
X003700Y003206D02*
X003800Y003206D01*
X003800Y003107D02*
X003700Y003107D01*
X003966Y003009D02*
X004534Y003009D01*
X004435Y002910D02*
X004065Y002910D01*
X004163Y002812D02*
X004337Y002812D01*
X004270Y002713D02*
X004230Y002713D01*
X004230Y002615D02*
X004270Y002615D01*
X004270Y002516D02*
X004230Y002516D01*
X004230Y002418D02*
X004270Y002418D01*
X004298Y002319D02*
X004202Y002319D01*
X004103Y002221D02*
X004397Y002221D01*
X006016Y001630D02*
X006090Y001630D01*
X006162Y001531D02*
X005918Y001531D01*
X005650Y001546D02*
X004750Y001546D01*
X005230Y001334D02*
X009379Y001334D01*
X009281Y001433D02*
X005819Y001433D01*
X005650Y001546D02*
X007250Y003146D01*
X007502Y003009D02*
X007830Y003009D01*
X007731Y002910D02*
X007417Y002910D01*
X007633Y002812D02*
X007198Y002812D01*
X007100Y002713D02*
X007534Y002713D01*
X007436Y002615D02*
X007001Y002615D01*
X006903Y002516D02*
X007337Y002516D01*
X007239Y002418D02*
X006804Y002418D01*
X006706Y002319D02*
X007140Y002319D01*
X007042Y002221D02*
X006607Y002221D01*
X006509Y002122D02*
X006943Y002122D01*
X006845Y002024D02*
X006425Y002024D01*
X006350Y001746D02*
X006850Y001746D01*
X007016Y001630D02*
X009084Y001630D01*
X009182Y001531D02*
X006538Y001531D01*
X005230Y001236D02*
X009478Y001236D01*
X009576Y001137D02*
X005213Y001137D01*
X008400Y001996D02*
X009000Y001996D01*
X009750Y001246D01*
X010350Y001246D01*
X010613Y001137D02*
X015600Y001137D01*
X015600Y001236D02*
X010635Y001236D01*
X010622Y001334D02*
X015600Y001334D01*
X015600Y001433D02*
X015600Y001060D01*
X015864Y000796D01*
X016236Y000796D01*
X016500Y001060D01*
X016500Y001433D01*
X016700Y001433D01*
X016700Y001334D02*
X016500Y001334D01*
X016500Y001433D02*
X016236Y001696D01*
X015864Y001696D01*
X015600Y001433D01*
X010567Y001433D01*
X009748Y001531D02*
X015699Y001531D01*
X015797Y001630D02*
X009649Y001630D01*
X009551Y001728D02*
X016700Y001728D01*
X016700Y001630D02*
X016303Y001630D01*
X016401Y001531D02*
X016700Y001531D01*
X016700Y001236D02*
X016500Y001236D01*
X016500Y001137D02*
X016700Y001137D01*
X016700Y001039D02*
X016479Y001039D01*
X016380Y000940D02*
X016700Y000940D01*
X016700Y000842D02*
X016282Y000842D01*
X016700Y000743D02*
X000300Y000743D01*
X000300Y000842D02*
X015818Y000842D01*
X015720Y000940D02*
X000300Y000940D01*
X000300Y001039D02*
X010154Y001039D01*
X010546Y001039D02*
X015621Y001039D01*
X015833Y001827D02*
X015354Y001827D01*
X015354Y001925D02*
X015735Y001925D01*
X016267Y001827D02*
X016700Y001827D01*
X016700Y001925D02*
X016365Y001925D01*
X016464Y002024D02*
X016700Y002024D01*
X016700Y002122D02*
X016500Y002122D01*
X016500Y002221D02*
X016700Y002221D01*
X016700Y002319D02*
X016500Y002319D01*
X016500Y002418D02*
X016700Y002418D01*
X016700Y002516D02*
X016416Y002516D01*
X016318Y002615D02*
X016700Y002615D01*
X016700Y002713D02*
X010400Y002713D01*
X010498Y002812D02*
X015848Y002812D01*
X015864Y002796D02*
X015600Y003060D01*
X015600Y003196D01*
X016000Y003196D01*
X016100Y003196D01*
X016100Y002796D01*
X016236Y002796D01*
X016500Y003060D01*
X016500Y003196D01*
X016100Y003196D01*
X016100Y003296D01*
X016500Y003296D01*
X016500Y003433D01*
X016236Y003696D01*
X016100Y003696D01*
X016100Y003296D01*
X016000Y003296D01*
X016000Y003196D01*
X016000Y002796D01*
X015864Y002796D01*
X016000Y002812D02*
X016100Y002812D01*
X016252Y002812D02*
X016700Y002812D01*
X016700Y002910D02*
X016350Y002910D01*
X016449Y003009D02*
X016700Y003009D01*
X016700Y003107D02*
X016500Y003107D01*
X016700Y003206D02*
X016100Y003206D01*
X016100Y003107D02*
X016000Y003107D01*
X016000Y003206D02*
X015354Y003206D01*
X015354Y003247D02*
X014900Y003247D01*
X014900Y002832D01*
X015224Y002832D01*
X015262Y002843D01*
X015296Y002862D01*
X015324Y002890D01*
X015344Y002925D01*
X015354Y002963D01*
X015354Y003247D01*
X015600Y003296D02*
X016000Y003296D01*
X016000Y003696D01*
X015864Y003696D01*
X015600Y003433D01*
X015600Y003296D01*
X015600Y003304D02*
X014900Y003304D01*
X014900Y003347D02*
X014900Y003247D01*
X014800Y003247D01*
X014800Y002832D01*
X014476Y002832D01*
X014438Y002843D01*
X014404Y002862D01*
X014376Y002890D01*
X014356Y002925D01*
X014346Y002963D01*
X014346Y003247D01*
X014800Y003247D01*
X014800Y003347D01*
X014346Y003347D01*
X014346Y003632D01*
X014356Y003670D01*
X014376Y003705D01*
X014404Y003732D01*
X014438Y003752D01*
X014476Y003762D01*
X014800Y003762D01*
X014800Y003347D01*
X014900Y003347D01*
X015354Y003347D01*
X015354Y003632D01*
X015344Y003670D01*
X015324Y003705D01*
X015296Y003732D01*
X015262Y003752D01*
X015224Y003762D01*
X014900Y003762D01*
X014900Y003347D01*
X014900Y003403D02*
X014800Y003403D01*
X014800Y003501D02*
X014900Y003501D01*
X014900Y003600D02*
X014800Y003600D01*
X014800Y003698D02*
X014900Y003698D01*
X015328Y003698D02*
X016700Y003698D01*
X016700Y003600D02*
X016333Y003600D01*
X016100Y003600D02*
X016000Y003600D01*
X015767Y003600D02*
X015354Y003600D01*
X015354Y003501D02*
X015669Y003501D01*
X015600Y003403D02*
X015354Y003403D01*
X016000Y003403D02*
X016100Y003403D01*
X016100Y003501D02*
X016000Y003501D01*
X016000Y003304D02*
X016100Y003304D01*
X016500Y003304D02*
X016700Y003304D01*
X016700Y003403D02*
X016500Y003403D01*
X016431Y003501D02*
X016700Y003501D01*
X016700Y003797D02*
X011483Y003797D01*
X011582Y003895D02*
X016700Y003895D01*
X016700Y003994D02*
X011680Y003994D01*
X011779Y004092D02*
X016700Y004092D01*
X016700Y004191D02*
X011877Y004191D01*
X011976Y004289D02*
X016700Y004289D01*
X016700Y004388D02*
X012074Y004388D01*
X012173Y004486D02*
X016700Y004486D01*
X016700Y004585D02*
X012271Y004585D01*
X012370Y004683D02*
X016700Y004683D01*
X016700Y004782D02*
X012468Y004782D01*
X012567Y004880D02*
X016700Y004880D01*
X016700Y004979D02*
X012665Y004979D01*
X012764Y005077D02*
X016700Y005077D01*
X016700Y005176D02*
X016375Y005176D01*
X016365Y005159D02*
X016385Y005193D01*
X016395Y005231D01*
X016395Y005498D01*
X015998Y005498D01*
X015998Y005101D01*
X016265Y005101D01*
X016303Y005111D01*
X016337Y005131D01*
X016365Y005159D01*
X016395Y005274D02*
X016700Y005274D01*
X016700Y005373D02*
X016395Y005373D01*
X016395Y005471D02*
X016700Y005471D01*
X016700Y005570D02*
X015998Y005570D01*
X015998Y005595D02*
X016395Y005595D01*
X016395Y005861D01*
X016385Y005899D01*
X016365Y005934D01*
X016337Y005962D01*
X016303Y005981D01*
X016265Y005992D01*
X015998Y005992D01*
X015998Y005595D01*
X015902Y005595D01*
X015902Y005992D01*
X015635Y005992D01*
X015597Y005981D01*
X015563Y005962D01*
X015535Y005934D01*
X015515Y005899D01*
X015505Y005861D01*
X015505Y005595D01*
X015902Y005595D01*
X015902Y005498D01*
X015998Y005498D01*
X015998Y005595D01*
X015902Y005570D02*
X015395Y005570D01*
X015505Y005498D02*
X015505Y005231D01*
X015515Y005193D01*
X015535Y005159D01*
X015563Y005131D01*
X015597Y005111D01*
X015635Y005101D01*
X015902Y005101D01*
X015902Y005498D01*
X015505Y005498D01*
X015505Y005471D02*
X015395Y005471D01*
X015395Y005373D02*
X015505Y005373D01*
X015395Y005362D02*
X015134Y005101D01*
X014766Y005101D01*
X014505Y005362D01*
X014505Y005731D01*
X014766Y005992D01*
X015134Y005992D01*
X015395Y005731D01*
X015395Y005362D01*
X015308Y005274D02*
X015505Y005274D01*
X015525Y005176D02*
X015209Y005176D01*
X014691Y005176D02*
X014209Y005176D01*
X014134Y005101D02*
X014395Y005362D01*
X014395Y005731D01*
X014134Y005992D01*
X013766Y005992D01*
X013505Y005731D01*
X013505Y005362D01*
X013766Y005101D01*
X014134Y005101D01*
X014308Y005274D02*
X014592Y005274D01*
X014505Y005373D02*
X014395Y005373D01*
X014395Y005471D02*
X014505Y005471D01*
X014505Y005570D02*
X014395Y005570D01*
X014395Y005668D02*
X014505Y005668D01*
X014541Y005767D02*
X014359Y005767D01*
X014261Y005865D02*
X014639Y005865D01*
X014738Y005964D02*
X014162Y005964D01*
X013738Y005964D02*
X013162Y005964D01*
X013261Y005865D02*
X013639Y005865D01*
X013541Y005767D02*
X013359Y005767D01*
X013395Y005668D02*
X013505Y005668D01*
X013505Y005570D02*
X013395Y005570D01*
X013395Y005471D02*
X013505Y005471D01*
X013505Y005373D02*
X013395Y005373D01*
X013308Y005274D02*
X013592Y005274D01*
X013691Y005176D02*
X013209Y005176D01*
X012494Y005373D02*
X012395Y005373D01*
X012395Y005471D02*
X012505Y005471D01*
X012505Y005668D02*
X012395Y005668D01*
X012359Y005767D02*
X012541Y005767D01*
X012639Y005865D02*
X012261Y005865D01*
X012162Y005964D02*
X012738Y005964D01*
X011998Y005964D02*
X011902Y005964D01*
X011902Y005865D02*
X011998Y005865D01*
X011998Y005767D02*
X011902Y005767D01*
X011902Y005668D02*
X011998Y005668D01*
X011903Y004782D02*
X010651Y004782D01*
X010650Y004683D02*
X011804Y004683D01*
X011706Y004585D02*
X010650Y004585D01*
X010650Y004486D02*
X011607Y004486D01*
X011509Y004388D02*
X010650Y004388D01*
X010650Y004289D02*
X011410Y004289D01*
X011312Y004191D02*
X010650Y004191D01*
X010650Y004092D02*
X011213Y004092D01*
X011115Y003994D02*
X010650Y003994D01*
X010582Y003895D02*
X011016Y003895D01*
X010918Y003797D02*
X010483Y003797D01*
X010385Y003698D02*
X010819Y003698D01*
X010721Y003600D02*
X010286Y003600D01*
X010991Y003304D02*
X014800Y003304D01*
X014800Y003206D02*
X014900Y003206D01*
X014900Y003107D02*
X014800Y003107D01*
X014800Y003009D02*
X014900Y003009D01*
X014900Y002910D02*
X014800Y002910D01*
X014364Y002910D02*
X010597Y002910D01*
X010695Y003009D02*
X014346Y003009D01*
X014346Y003107D02*
X010794Y003107D01*
X010892Y003206D02*
X014346Y003206D01*
X014346Y003403D02*
X011089Y003403D01*
X011188Y003501D02*
X014346Y003501D01*
X014346Y003600D02*
X011286Y003600D01*
X011385Y003698D02*
X014372Y003698D01*
X015354Y003107D02*
X015600Y003107D01*
X015651Y003009D02*
X015354Y003009D01*
X015336Y002910D02*
X015750Y002910D01*
X016000Y002910D02*
X016100Y002910D01*
X016100Y003009D02*
X016000Y003009D01*
X015782Y002615D02*
X015312Y002615D01*
X015354Y002516D02*
X015684Y002516D01*
X014388Y002615D02*
X010301Y002615D01*
X010203Y002516D02*
X014346Y002516D01*
X013321Y002418D02*
X010104Y002418D01*
X010006Y002319D02*
X013244Y002319D01*
X013216Y002221D02*
X009907Y002221D01*
X008736Y002615D02*
X008622Y002615D01*
X008278Y002615D02*
X008247Y002615D01*
X008053Y002615D02*
X008001Y002615D01*
X007917Y002516D02*
X007903Y002516D01*
X007871Y002418D02*
X007804Y002418D01*
X008498Y001728D02*
X008985Y001728D01*
X004510Y003107D02*
X003990Y003107D01*
X004088Y003206D02*
X004412Y003206D01*
X004313Y003304D02*
X004187Y003304D01*
X004230Y003403D02*
X004270Y003403D01*
X004270Y003501D02*
X003800Y003501D01*
X003800Y003403D02*
X003700Y003403D01*
X003700Y003501D02*
X000300Y003501D01*
X000300Y003403D02*
X003270Y003403D01*
X003313Y003304D02*
X000300Y003304D01*
X000300Y003600D02*
X003270Y003600D01*
X003270Y003698D02*
X000300Y003698D01*
X000300Y003797D02*
X003322Y003797D01*
X003420Y003895D02*
X000300Y003895D01*
X003700Y003895D02*
X003800Y003895D01*
X003800Y003797D02*
X003700Y003797D01*
X003700Y003698D02*
X003800Y003698D01*
X003800Y003600D02*
X003700Y003600D01*
X004178Y003797D02*
X004322Y003797D01*
X004420Y003895D02*
X004080Y003895D01*
X003981Y003994D02*
X004519Y003994D01*
X003800Y003994D02*
X003700Y003994D01*
X004230Y003698D02*
X004270Y003698D01*
X004270Y003600D02*
X004230Y003600D01*
X003800Y003304D02*
X003700Y003304D01*
X005650Y003403D02*
X005701Y003403D01*
X005665Y003501D02*
X005650Y003501D01*
X006877Y004191D02*
X007922Y004191D01*
X008178Y004191D02*
X009922Y004191D01*
X015162Y005964D02*
X015566Y005964D01*
X015506Y005865D02*
X015261Y005865D01*
X015359Y005767D02*
X015505Y005767D01*
X015505Y005668D02*
X015395Y005668D01*
X015902Y005668D02*
X015998Y005668D01*
X015998Y005767D02*
X015902Y005767D01*
X015902Y005865D02*
X015998Y005865D01*
X015998Y005964D02*
X015902Y005964D01*
X016334Y005964D02*
X016700Y005964D01*
X016700Y005865D02*
X016394Y005865D01*
X016395Y005767D02*
X016700Y005767D01*
X016700Y005668D02*
X016395Y005668D01*
X015998Y005471D02*
X015902Y005471D01*
X015902Y005373D02*
X015998Y005373D01*
X015998Y005274D02*
X015902Y005274D01*
X015902Y005176D02*
X015998Y005176D01*
D17*
X010050Y004446D03*
X008050Y004446D03*
X005950Y003546D03*
X007250Y003146D03*
X008450Y002846D03*
X008150Y002346D03*
X008400Y001996D03*
X009550Y002146D03*
X010350Y001246D03*
X013501Y002195D03*
X006350Y001746D03*
X005750Y002246D03*
X003450Y004346D03*
D18*
X013501Y002195D02*
X014850Y002195D01*
X014901Y002246D01*
X016050Y002246D01*
X016050Y003246D02*
X015999Y003297D01*
M02*
