G75*
%MOIN*%
%OFA0B0*%
%FSLAX24Y24*%
%IPPOS*%
%LPD*%
%AMOC8*
5,1,8,0,0,1.08239X$1,22.5*
%
%ADD10C,0.0030*%
%ADD11C,0.0080*%
%ADD12R,0.0197X0.0620*%
D10*
X012960Y001145D02*
X013154Y001145D01*
X013154Y001435D01*
X013255Y001435D02*
X013255Y001242D01*
X013352Y001145D01*
X013448Y001242D01*
X013448Y001435D01*
X013550Y001387D02*
X013743Y001193D01*
X013695Y001145D01*
X013598Y001145D01*
X013550Y001193D01*
X013550Y001387D01*
X013598Y001435D01*
X013695Y001435D01*
X013743Y001387D01*
X013743Y001193D01*
X013844Y001145D02*
X014038Y001145D01*
X013844Y001338D01*
X013844Y001387D01*
X013893Y001435D01*
X013989Y001435D01*
X014038Y001387D01*
X014139Y001387D02*
X014332Y001193D01*
X014284Y001145D01*
X014187Y001145D01*
X014139Y001193D01*
X014139Y001387D01*
X014187Y001435D01*
X014284Y001435D01*
X014332Y001387D01*
X014332Y001193D01*
X014433Y001145D02*
X014627Y001145D01*
X014530Y001145D02*
X014530Y001435D01*
X014627Y001338D01*
X014728Y001290D02*
X014777Y001242D01*
X014922Y001242D01*
X014825Y001242D02*
X014728Y001145D01*
X014922Y001145D02*
X014922Y001435D01*
X014777Y001435D01*
X014728Y001387D01*
X014728Y001290D01*
X015023Y001242D02*
X015023Y001193D01*
X015071Y001145D01*
X015216Y001145D01*
X015216Y001435D01*
X015071Y001435D01*
X015023Y001387D01*
X015023Y001338D01*
X015071Y001290D01*
X015216Y001290D01*
X015071Y001290D02*
X015023Y001242D01*
X015317Y001145D02*
X015317Y001435D01*
X015414Y001338D01*
X015511Y001435D01*
X015511Y001145D01*
X014674Y003315D02*
X014481Y003315D01*
X014578Y003315D02*
X014578Y003605D01*
X014674Y003508D01*
X014380Y003557D02*
X014380Y003363D01*
X014186Y003557D01*
X014186Y003363D01*
X014235Y003315D01*
X014331Y003315D01*
X014380Y003363D01*
X014085Y003363D02*
X014085Y003508D01*
X014186Y003557D02*
X014235Y003605D01*
X014331Y003605D01*
X014380Y003557D01*
X014085Y003363D02*
X014037Y003315D01*
X013892Y003315D01*
X013892Y003508D01*
X013790Y003460D02*
X013694Y003460D01*
X013790Y003315D02*
X013790Y003605D01*
X013597Y003605D01*
D11*
X013944Y002165D02*
X014456Y002165D01*
X014456Y001535D02*
X013944Y001535D01*
D12*
X014003Y001845D03*
M02*
