G75*
%MOIN*%
%OFA0B0*%
%FSLAX24Y24*%
%IPPOS*%
%LPD*%
%AMOC8*
5,1,8,0,0,1.08239X$1,22.5*
%
%ADD10R,0.0630X0.0709*%
%ADD11C,0.0472*%
%ADD12OC8,0.0600*%
%ADD13R,0.0591X0.0591*%
%ADD14OC8,0.0591*%
%ADD15R,0.0709X0.0492*%
%ADD16C,0.0100*%
%ADD17C,0.0270*%
%ADD18C,0.0120*%
%ADD19C,0.0160*%
D10*
X013549Y002850D03*
X014651Y002850D03*
D11*
X005550Y002150D03*
X004550Y002150D03*
D12*
X016050Y001850D03*
X016050Y000850D03*
X016050Y002850D03*
D13*
X015950Y005150D03*
D14*
X014950Y005150D03*
X013950Y005150D03*
X012950Y005150D03*
X011950Y005150D03*
X010950Y005150D03*
X005950Y005150D03*
X004950Y005150D03*
X003950Y005150D03*
X002950Y005150D03*
X001950Y005150D03*
X000950Y005150D03*
D15*
X013531Y001850D03*
X014869Y001850D03*
D16*
X000300Y000300D02*
X000300Y005600D01*
X016700Y005600D01*
X016700Y000300D01*
X000300Y000300D01*
X000300Y000347D02*
X016700Y000347D01*
X016700Y000446D02*
X016282Y000446D01*
X016236Y000400D02*
X016500Y000664D01*
X016500Y001036D01*
X016236Y001300D01*
X015864Y001300D01*
X015600Y001036D01*
X015600Y000664D01*
X015864Y000400D01*
X016236Y000400D01*
X016380Y000544D02*
X016700Y000544D01*
X016700Y000643D02*
X016479Y000643D01*
X016500Y000741D02*
X016700Y000741D01*
X016700Y000840D02*
X016500Y000840D01*
X016500Y000938D02*
X016700Y000938D01*
X016700Y001037D02*
X016500Y001037D01*
X016401Y001135D02*
X016700Y001135D01*
X016700Y001234D02*
X016303Y001234D01*
X016700Y001332D02*
X000300Y001332D01*
X000300Y001234D02*
X015797Y001234D01*
X015699Y001135D02*
X000300Y001135D01*
X000300Y001037D02*
X015600Y001037D01*
X015600Y000938D02*
X000300Y000938D01*
X000300Y000840D02*
X015600Y000840D01*
X015600Y000741D02*
X000300Y000741D01*
X000300Y000643D02*
X015621Y000643D01*
X015720Y000544D02*
X000300Y000544D01*
X000300Y000446D02*
X015818Y000446D01*
X015864Y001400D02*
X016236Y001400D01*
X016500Y001664D01*
X016500Y002036D01*
X016236Y002300D01*
X015864Y002300D01*
X015624Y002060D01*
X015374Y002060D01*
X015374Y002158D01*
X015286Y002246D01*
X014453Y002246D01*
X014365Y002158D01*
X014365Y001542D01*
X014453Y001454D01*
X015286Y001454D01*
X015374Y001542D01*
X015374Y001640D01*
X015624Y001640D01*
X015864Y001400D01*
X015833Y001431D02*
X005234Y001431D01*
X005253Y001450D02*
X006733Y001450D01*
X007148Y001865D01*
X007207Y001865D01*
X007311Y001908D01*
X007392Y001989D01*
X007435Y002093D01*
X007435Y002207D01*
X007392Y002311D01*
X007314Y002389D01*
X007361Y002408D01*
X007442Y002489D01*
X007485Y002593D01*
X007485Y002707D01*
X007442Y002811D01*
X007361Y002892D01*
X007257Y002935D01*
X007143Y002935D01*
X007039Y002892D01*
X006997Y002850D01*
X006783Y002850D01*
X006485Y003148D01*
X006485Y003207D01*
X006442Y003311D01*
X006361Y003392D01*
X006257Y003435D01*
X006143Y003435D01*
X006039Y003392D01*
X005958Y003311D01*
X005915Y003207D01*
X005915Y003093D01*
X005958Y002989D01*
X006039Y002908D01*
X005075Y002908D01*
X004976Y003007D02*
X005951Y003007D01*
X006039Y002908D02*
X006143Y002865D01*
X006202Y002865D01*
X006500Y002567D01*
X006617Y002450D01*
X006997Y002450D01*
X007036Y002411D01*
X006989Y002392D01*
X006908Y002311D01*
X006865Y002207D01*
X006865Y002148D01*
X006567Y001850D01*
X005796Y001850D01*
X005877Y001931D01*
X005936Y002073D01*
X005936Y002227D01*
X005877Y002369D01*
X005769Y002477D01*
X005627Y002536D01*
X005473Y002536D01*
X005454Y002528D01*
X004235Y003748D01*
X004235Y003807D01*
X004192Y003911D01*
X004111Y003992D01*
X004007Y004035D01*
X003893Y004035D01*
X003789Y003992D01*
X003708Y003911D01*
X003665Y003807D01*
X003665Y003693D01*
X003708Y003589D01*
X003789Y003508D01*
X003893Y003465D01*
X003952Y003465D01*
X005172Y002246D01*
X005164Y002227D01*
X005164Y002073D01*
X005223Y001931D01*
X005304Y001850D01*
X005253Y001850D01*
X005211Y001892D01*
X005107Y001935D01*
X004993Y001935D01*
X004889Y001892D01*
X004808Y001811D01*
X004765Y001707D01*
X004765Y001593D01*
X004808Y001489D01*
X004889Y001408D01*
X004993Y001365D01*
X005107Y001365D01*
X005211Y001408D01*
X005253Y001450D01*
X004866Y001431D02*
X000300Y001431D01*
X000300Y001529D02*
X004792Y001529D01*
X004765Y001628D02*
X000300Y001628D01*
X000300Y001726D02*
X004773Y001726D01*
X004769Y001823D02*
X004627Y001764D01*
X004473Y001764D01*
X004331Y001823D01*
X004223Y001931D01*
X004164Y002073D01*
X004164Y002227D01*
X004223Y002369D01*
X004331Y002477D01*
X004473Y002536D01*
X004627Y002536D01*
X004769Y002477D01*
X004877Y002369D01*
X004936Y002227D01*
X004936Y002073D01*
X004877Y001931D01*
X004769Y001823D01*
X004771Y001825D02*
X004821Y001825D01*
X004869Y001923D02*
X004964Y001923D01*
X005136Y001923D02*
X005231Y001923D01*
X005185Y002022D02*
X004915Y002022D01*
X004936Y002120D02*
X005164Y002120D01*
X005164Y002219D02*
X004936Y002219D01*
X004899Y002317D02*
X005100Y002317D01*
X005002Y002416D02*
X004831Y002416D01*
X004903Y002514D02*
X004680Y002514D01*
X004805Y002613D02*
X000300Y002613D01*
X000300Y002711D02*
X004706Y002711D01*
X004608Y002810D02*
X000300Y002810D01*
X000300Y002908D02*
X004509Y002908D01*
X004411Y003007D02*
X000300Y003007D01*
X000300Y003105D02*
X004312Y003105D01*
X004214Y003204D02*
X000300Y003204D01*
X000300Y003302D02*
X004115Y003302D01*
X004017Y003401D02*
X000300Y003401D01*
X000300Y003499D02*
X003811Y003499D01*
X003705Y003598D02*
X000300Y003598D01*
X000300Y003696D02*
X003665Y003696D01*
X003665Y003795D02*
X000300Y003795D01*
X000300Y003893D02*
X003701Y003893D01*
X003788Y003992D02*
X000300Y003992D01*
X000300Y004090D02*
X009785Y004090D01*
X009765Y004041D02*
X009765Y003998D01*
X008702Y002935D01*
X008643Y002935D01*
X008539Y002892D01*
X008458Y002811D01*
X008415Y002707D01*
X008415Y002593D01*
X008458Y002489D01*
X008539Y002408D01*
X008643Y002365D01*
X008757Y002365D01*
X008861Y002408D01*
X008942Y002489D01*
X008985Y002593D01*
X008985Y002652D01*
X010032Y003700D01*
X010107Y003700D01*
X010211Y003743D01*
X010292Y003823D01*
X010335Y003928D01*
X010335Y004041D01*
X010292Y004146D01*
X010211Y004226D01*
X010107Y004270D01*
X009993Y004270D01*
X009889Y004226D01*
X009808Y004146D01*
X009765Y004041D01*
X009759Y003992D02*
X004112Y003992D01*
X004199Y003893D02*
X009660Y003893D01*
X009562Y003795D02*
X004235Y003795D01*
X003950Y003750D02*
X005550Y002150D01*
X005915Y002022D02*
X006739Y002022D01*
X006837Y002120D02*
X005936Y002120D01*
X005936Y002219D02*
X006870Y002219D01*
X007150Y002150D02*
X006650Y001650D01*
X005050Y001650D01*
X004329Y001825D02*
X000300Y001825D01*
X000300Y001923D02*
X004231Y001923D01*
X004185Y002022D02*
X000300Y002022D01*
X000300Y002120D02*
X004164Y002120D01*
X004164Y002219D02*
X000300Y002219D01*
X000300Y002317D02*
X004201Y002317D01*
X004269Y002416D02*
X000300Y002416D01*
X000300Y002514D02*
X004420Y002514D01*
X005173Y002810D02*
X006258Y002810D01*
X006356Y002711D02*
X005272Y002711D01*
X005370Y002613D02*
X006455Y002613D01*
X006553Y002514D02*
X005680Y002514D01*
X005831Y002416D02*
X007031Y002416D01*
X006914Y002317D02*
X005899Y002317D01*
X006700Y002650D02*
X007200Y002650D01*
X007485Y002613D02*
X008415Y002613D01*
X008417Y002711D02*
X007483Y002711D01*
X007442Y002810D02*
X008458Y002810D01*
X008578Y002908D02*
X007322Y002908D01*
X007078Y002908D02*
X006725Y002908D01*
X006626Y003007D02*
X008774Y003007D01*
X008872Y003105D02*
X006528Y003105D01*
X006485Y003204D02*
X008971Y003204D01*
X009069Y003302D02*
X006446Y003302D01*
X006340Y003401D02*
X009168Y003401D01*
X009266Y003499D02*
X004484Y003499D01*
X004385Y003598D02*
X009365Y003598D01*
X009463Y003696D02*
X004287Y003696D01*
X004582Y003401D02*
X006060Y003401D01*
X005954Y003302D02*
X004681Y003302D01*
X004779Y003204D02*
X005915Y003204D01*
X005915Y003105D02*
X004878Y003105D01*
X006200Y003150D02*
X006700Y002650D01*
X007369Y002416D02*
X008531Y002416D01*
X008448Y002514D02*
X007452Y002514D01*
X007386Y002317D02*
X008984Y002317D01*
X009083Y002416D02*
X008869Y002416D01*
X008952Y002514D02*
X009181Y002514D01*
X009280Y002613D02*
X008985Y002613D01*
X009044Y002711D02*
X009378Y002711D01*
X009477Y002810D02*
X009142Y002810D01*
X009241Y002908D02*
X009575Y002908D01*
X009674Y003007D02*
X009339Y003007D01*
X009438Y003105D02*
X009772Y003105D01*
X009871Y003204D02*
X009536Y003204D01*
X009635Y003302D02*
X009969Y003302D01*
X010068Y003401D02*
X009733Y003401D01*
X009832Y003499D02*
X010166Y003499D01*
X010265Y003598D02*
X009930Y003598D01*
X010029Y003696D02*
X010363Y003696D01*
X010263Y003795D02*
X010462Y003795D01*
X010560Y003893D02*
X010321Y003893D01*
X010335Y003992D02*
X010659Y003992D01*
X010665Y003998D02*
X008702Y002035D01*
X008643Y002035D01*
X008539Y001992D01*
X008458Y001911D01*
X008415Y001807D01*
X008415Y001693D01*
X008458Y001589D01*
X008539Y001508D01*
X008643Y001465D01*
X008757Y001465D01*
X008861Y001508D01*
X008942Y001589D01*
X008985Y001693D01*
X008985Y001752D01*
X010948Y003715D01*
X011007Y003715D01*
X011111Y003758D01*
X011192Y003839D01*
X011235Y003943D01*
X011235Y004057D01*
X011192Y004161D01*
X011111Y004242D01*
X011007Y004285D01*
X010893Y004285D01*
X010789Y004242D01*
X010708Y004161D01*
X010665Y004057D01*
X010665Y003998D01*
X010679Y004090D02*
X010315Y004090D01*
X010249Y004189D02*
X010735Y004189D01*
X011165Y004189D02*
X013692Y004189D01*
X013790Y004287D02*
X000300Y004287D01*
X000300Y004189D02*
X009851Y004189D01*
X010035Y003985D02*
X010050Y003985D01*
X010035Y003985D02*
X008700Y002650D01*
X009550Y002317D02*
X011350Y002317D01*
X011350Y002303D02*
X011308Y002261D01*
X011265Y002157D01*
X011265Y002043D01*
X011308Y001939D01*
X011389Y001858D01*
X011493Y001815D01*
X011607Y001815D01*
X011711Y001858D01*
X011792Y001939D01*
X011835Y002043D01*
X011835Y002157D01*
X011792Y002261D01*
X011750Y002303D01*
X011750Y002747D01*
X011792Y002789D01*
X011835Y002893D01*
X011835Y003007D01*
X011792Y003111D01*
X011711Y003192D01*
X011607Y003235D01*
X011493Y003235D01*
X011389Y003192D01*
X011308Y003111D01*
X011265Y003007D01*
X011265Y002893D01*
X011308Y002789D01*
X011350Y002747D01*
X011350Y002303D01*
X011350Y002416D02*
X009648Y002416D01*
X009747Y002514D02*
X011350Y002514D01*
X011350Y002613D02*
X009845Y002613D01*
X009944Y002711D02*
X011350Y002711D01*
X011300Y002810D02*
X010042Y002810D01*
X010141Y002908D02*
X011265Y002908D01*
X011265Y003007D02*
X010239Y003007D01*
X010338Y003105D02*
X011306Y003105D01*
X011417Y003204D02*
X010436Y003204D01*
X010535Y003302D02*
X013119Y003302D01*
X013084Y003266D02*
X013084Y003060D01*
X012963Y003060D01*
X012738Y002835D01*
X012693Y002835D01*
X012589Y002792D01*
X012508Y002711D01*
X011750Y002711D01*
X011750Y002613D02*
X012467Y002613D01*
X012465Y002607D02*
X012465Y002493D01*
X012508Y002389D01*
X012589Y002308D01*
X012693Y002265D01*
X012807Y002265D01*
X012911Y002308D01*
X012992Y002389D01*
X013035Y002493D01*
X013035Y002538D01*
X013084Y002587D01*
X013084Y002434D01*
X013172Y002346D01*
X013321Y002346D01*
X013321Y002246D01*
X013114Y002246D01*
X013026Y002158D01*
X013026Y001542D01*
X013114Y001454D01*
X013947Y001454D01*
X014035Y001542D01*
X014035Y002158D01*
X013947Y002246D01*
X013741Y002246D01*
X013741Y002346D01*
X013926Y002346D01*
X014014Y002434D01*
X014014Y003266D01*
X013926Y003354D01*
X013786Y003354D01*
X013804Y003707D01*
X014802Y004705D01*
X015134Y004705D01*
X015395Y004966D01*
X015395Y005334D01*
X015134Y005595D01*
X014766Y005595D01*
X014505Y005334D01*
X014505Y005002D01*
X013454Y003951D01*
X013394Y003897D01*
X013393Y003890D01*
X013389Y003886D01*
X013389Y003804D01*
X013365Y003354D01*
X013172Y003354D01*
X013084Y003266D01*
X013084Y003204D02*
X011683Y003204D01*
X011794Y003105D02*
X013084Y003105D01*
X012910Y003007D02*
X011835Y003007D01*
X011835Y002908D02*
X012811Y002908D01*
X012632Y002810D02*
X011800Y002810D01*
X011550Y002950D02*
X011550Y002100D01*
X011265Y002120D02*
X009353Y002120D01*
X009254Y002022D02*
X011274Y002022D01*
X011324Y001923D02*
X009156Y001923D01*
X009057Y001825D02*
X011470Y001825D01*
X011630Y001825D02*
X013026Y001825D01*
X013026Y001726D02*
X008985Y001726D01*
X008700Y001750D02*
X010950Y004000D01*
X011235Y003992D02*
X013495Y003992D01*
X013593Y004090D02*
X011221Y004090D01*
X011214Y003893D02*
X013393Y003893D01*
X013388Y003795D02*
X011148Y003795D01*
X010929Y003696D02*
X013383Y003696D01*
X013378Y003598D02*
X010830Y003598D01*
X010732Y003499D02*
X013373Y003499D01*
X013368Y003401D02*
X010633Y003401D01*
X012465Y002607D02*
X012508Y002711D01*
X012465Y002514D02*
X011750Y002514D01*
X011750Y002416D02*
X012497Y002416D01*
X012580Y002317D02*
X011750Y002317D01*
X011809Y002219D02*
X013087Y002219D01*
X013026Y002120D02*
X011835Y002120D01*
X011826Y002022D02*
X013026Y002022D01*
X013026Y001923D02*
X011776Y001923D01*
X011291Y002219D02*
X009451Y002219D01*
X008886Y002219D02*
X007430Y002219D01*
X007435Y002120D02*
X008787Y002120D01*
X008611Y002022D02*
X007405Y002022D01*
X007326Y001923D02*
X008470Y001923D01*
X008422Y001825D02*
X007107Y001825D01*
X007009Y001726D02*
X008415Y001726D01*
X008442Y001628D02*
X006910Y001628D01*
X006812Y001529D02*
X008518Y001529D01*
X008882Y001529D02*
X013039Y001529D01*
X013026Y001628D02*
X008958Y001628D01*
X006640Y001923D02*
X005869Y001923D01*
X012920Y002317D02*
X013321Y002317D01*
X013102Y002416D02*
X013003Y002416D01*
X013035Y002514D02*
X013084Y002514D01*
X013741Y002317D02*
X016700Y002317D01*
X016700Y002416D02*
X016252Y002416D01*
X016236Y002400D02*
X016500Y002664D01*
X016500Y002800D01*
X016100Y002800D01*
X016100Y002900D01*
X016000Y002900D01*
X016000Y003300D01*
X015864Y003300D01*
X015600Y003036D01*
X015600Y002900D01*
X016000Y002900D01*
X016000Y002800D01*
X015600Y002800D01*
X015600Y002664D01*
X015864Y002400D01*
X016000Y002400D01*
X016000Y002800D01*
X016100Y002800D01*
X016100Y002400D01*
X016236Y002400D01*
X016100Y002416D02*
X016000Y002416D01*
X015848Y002416D02*
X015093Y002416D01*
X015086Y002404D02*
X015106Y002438D01*
X015116Y002476D01*
X015116Y002800D01*
X014701Y002800D01*
X014701Y002346D01*
X014986Y002346D01*
X015024Y002356D01*
X015058Y002376D01*
X015086Y002404D01*
X015116Y002514D02*
X015750Y002514D01*
X016000Y002514D02*
X016100Y002514D01*
X016350Y002514D02*
X016700Y002514D01*
X016700Y002613D02*
X016449Y002613D01*
X016500Y002711D02*
X016700Y002711D01*
X016700Y002810D02*
X016100Y002810D01*
X016000Y002810D02*
X014701Y002810D01*
X014701Y002800D02*
X014701Y002900D01*
X014601Y002900D01*
X014601Y002800D01*
X014186Y002800D01*
X014186Y002476D01*
X014196Y002438D01*
X014216Y002404D01*
X014244Y002376D01*
X014278Y002356D01*
X014316Y002346D01*
X014601Y002346D01*
X014601Y002800D01*
X014701Y002800D01*
X014601Y002810D02*
X014014Y002810D01*
X014014Y002908D02*
X014186Y002908D01*
X014186Y002900D02*
X014601Y002900D01*
X014601Y003354D01*
X014316Y003354D01*
X014278Y003344D01*
X014244Y003324D01*
X014216Y003296D01*
X014196Y003262D01*
X014186Y003224D01*
X014186Y002900D01*
X014186Y003007D02*
X014014Y003007D01*
X014014Y003105D02*
X014186Y003105D01*
X014186Y003204D02*
X014014Y003204D01*
X013978Y003302D02*
X014222Y003302D01*
X014601Y003302D02*
X014701Y003302D01*
X014701Y003354D02*
X014986Y003354D01*
X015024Y003344D01*
X015058Y003324D01*
X015086Y003296D01*
X015106Y003262D01*
X015116Y003224D01*
X015116Y002900D01*
X014701Y002900D01*
X014701Y003354D01*
X014701Y003204D02*
X014601Y003204D01*
X014601Y003105D02*
X014701Y003105D01*
X014701Y003007D02*
X014601Y003007D01*
X014601Y002908D02*
X014701Y002908D01*
X015116Y002908D02*
X015600Y002908D01*
X015600Y003007D02*
X015116Y003007D01*
X015116Y003105D02*
X015669Y003105D01*
X015767Y003204D02*
X015116Y003204D01*
X015081Y003302D02*
X016700Y003302D01*
X016700Y003204D02*
X016333Y003204D01*
X016236Y003300D02*
X016100Y003300D01*
X016100Y002900D01*
X016500Y002900D01*
X016500Y003036D01*
X016236Y003300D01*
X016100Y003204D02*
X016000Y003204D01*
X016000Y003105D02*
X016100Y003105D01*
X016100Y003007D02*
X016000Y003007D01*
X016000Y002908D02*
X016100Y002908D01*
X016500Y002908D02*
X016700Y002908D01*
X016700Y003007D02*
X016500Y003007D01*
X016431Y003105D02*
X016700Y003105D01*
X016700Y003401D02*
X013788Y003401D01*
X013793Y003499D02*
X016700Y003499D01*
X016700Y003598D02*
X013799Y003598D01*
X013804Y003696D02*
X016700Y003696D01*
X016700Y003795D02*
X013891Y003795D01*
X013990Y003893D02*
X016700Y003893D01*
X016700Y003992D02*
X014088Y003992D01*
X014187Y004090D02*
X016700Y004090D01*
X016700Y004189D02*
X014285Y004189D01*
X014384Y004287D02*
X016700Y004287D01*
X016700Y004386D02*
X014482Y004386D01*
X014581Y004484D02*
X016700Y004484D01*
X016700Y004583D02*
X014679Y004583D01*
X014778Y004681D02*
X016700Y004681D01*
X016700Y004780D02*
X016375Y004780D01*
X016385Y004797D02*
X016395Y004835D01*
X016395Y005102D01*
X015998Y005102D01*
X015998Y005198D01*
X015902Y005198D01*
X015902Y005102D01*
X015505Y005102D01*
X015505Y004835D01*
X015515Y004797D01*
X015535Y004763D01*
X015563Y004735D01*
X015597Y004715D01*
X015635Y004705D01*
X015902Y004705D01*
X015902Y005102D01*
X015998Y005102D01*
X015998Y004705D01*
X016265Y004705D01*
X016303Y004715D01*
X016337Y004735D01*
X016365Y004763D01*
X016385Y004797D01*
X016395Y004878D02*
X016700Y004878D01*
X016700Y004977D02*
X016395Y004977D01*
X016395Y005075D02*
X016700Y005075D01*
X016700Y005174D02*
X015998Y005174D01*
X015998Y005198D02*
X016395Y005198D01*
X016395Y005465D01*
X016385Y005503D01*
X016365Y005537D01*
X016337Y005565D01*
X016303Y005585D01*
X016265Y005595D01*
X015998Y005595D01*
X015998Y005198D01*
X015998Y005272D02*
X015902Y005272D01*
X015902Y005198D02*
X015902Y005595D01*
X015635Y005595D01*
X015597Y005585D01*
X015563Y005565D01*
X015535Y005537D01*
X015515Y005503D01*
X015505Y005465D01*
X015505Y005198D01*
X015902Y005198D01*
X015902Y005174D02*
X015395Y005174D01*
X015395Y005075D02*
X015505Y005075D01*
X015505Y004977D02*
X015395Y004977D01*
X015308Y004878D02*
X015505Y004878D01*
X015525Y004780D02*
X015209Y004780D01*
X015902Y004780D02*
X015998Y004780D01*
X015998Y004878D02*
X015902Y004878D01*
X015902Y004977D02*
X015998Y004977D01*
X015998Y005075D02*
X015902Y005075D01*
X015505Y005272D02*
X015395Y005272D01*
X015359Y005371D02*
X015505Y005371D01*
X015506Y005469D02*
X015261Y005469D01*
X015162Y005568D02*
X015566Y005568D01*
X015902Y005568D02*
X015998Y005568D01*
X015998Y005469D02*
X015902Y005469D01*
X015902Y005371D02*
X015998Y005371D01*
X016334Y005568D02*
X016700Y005568D01*
X016700Y005469D02*
X016394Y005469D01*
X016395Y005371D02*
X016700Y005371D01*
X016700Y005272D02*
X016395Y005272D01*
X014738Y005568D02*
X014162Y005568D01*
X014134Y005595D02*
X013766Y005595D01*
X013505Y005334D01*
X013505Y004966D01*
X013766Y004705D01*
X014134Y004705D01*
X014395Y004966D01*
X014395Y005334D01*
X014134Y005595D01*
X014261Y005469D02*
X014639Y005469D01*
X014541Y005371D02*
X014359Y005371D01*
X014395Y005272D02*
X014505Y005272D01*
X014505Y005174D02*
X014395Y005174D01*
X014395Y005075D02*
X014505Y005075D01*
X014480Y004977D02*
X014395Y004977D01*
X014381Y004878D02*
X014308Y004878D01*
X014283Y004780D02*
X014209Y004780D01*
X014184Y004681D02*
X000300Y004681D01*
X000300Y004583D02*
X014086Y004583D01*
X013987Y004484D02*
X000300Y004484D01*
X000300Y004386D02*
X013889Y004386D01*
X013395Y004966D02*
X013134Y004705D01*
X012766Y004705D01*
X012505Y004966D01*
X012505Y005334D01*
X012766Y005595D01*
X013134Y005595D01*
X013395Y005334D01*
X013395Y004966D01*
X013395Y004977D02*
X013505Y004977D01*
X013505Y005075D02*
X013395Y005075D01*
X013395Y005174D02*
X013505Y005174D01*
X013505Y005272D02*
X013395Y005272D01*
X013359Y005371D02*
X013541Y005371D01*
X013639Y005469D02*
X013261Y005469D01*
X013162Y005568D02*
X013738Y005568D01*
X012738Y005568D02*
X012162Y005568D01*
X012134Y005595D02*
X011998Y005595D01*
X011998Y005198D01*
X012395Y005198D01*
X012395Y005334D01*
X012134Y005595D01*
X011998Y005568D02*
X011902Y005568D01*
X011902Y005595D02*
X011766Y005595D01*
X011505Y005334D01*
X011505Y005198D01*
X011902Y005198D01*
X011902Y005102D01*
X011998Y005102D01*
X011998Y005198D01*
X011902Y005198D01*
X011902Y005595D01*
X011738Y005568D02*
X011162Y005568D01*
X011134Y005595D02*
X010766Y005595D01*
X010505Y005334D01*
X010505Y004966D01*
X010766Y004705D01*
X011134Y004705D01*
X011395Y004966D01*
X011395Y005334D01*
X011134Y005595D01*
X011261Y005469D02*
X011639Y005469D01*
X011541Y005371D02*
X011359Y005371D01*
X011395Y005272D02*
X011505Y005272D01*
X011395Y005174D02*
X011902Y005174D01*
X011902Y005102D02*
X011505Y005102D01*
X011505Y004966D01*
X011766Y004705D01*
X011902Y004705D01*
X011902Y005102D01*
X011902Y005075D02*
X011998Y005075D01*
X011998Y005102D02*
X011998Y004705D01*
X012134Y004705D01*
X012395Y004966D01*
X012395Y005102D01*
X011998Y005102D01*
X011998Y005174D02*
X012505Y005174D01*
X012505Y005075D02*
X012395Y005075D01*
X012395Y004977D02*
X012505Y004977D01*
X012592Y004878D02*
X012308Y004878D01*
X012209Y004780D02*
X012691Y004780D01*
X013209Y004780D02*
X013691Y004780D01*
X013592Y004878D02*
X013308Y004878D01*
X012505Y005272D02*
X012395Y005272D01*
X012359Y005371D02*
X012541Y005371D01*
X012639Y005469D02*
X012261Y005469D01*
X011998Y005469D02*
X011902Y005469D01*
X011902Y005371D02*
X011998Y005371D01*
X011998Y005272D02*
X011902Y005272D01*
X011505Y005075D02*
X011395Y005075D01*
X011395Y004977D02*
X011505Y004977D01*
X011592Y004878D02*
X011308Y004878D01*
X011209Y004780D02*
X011691Y004780D01*
X011902Y004780D02*
X011998Y004780D01*
X011998Y004878D02*
X011902Y004878D01*
X011902Y004977D02*
X011998Y004977D01*
X010691Y004780D02*
X006209Y004780D01*
X006308Y004878D02*
X010592Y004878D01*
X010505Y004977D02*
X006395Y004977D01*
X006395Y004966D02*
X006134Y004705D01*
X005766Y004705D01*
X005505Y004966D01*
X005505Y005334D01*
X005766Y005595D01*
X006134Y005595D01*
X006395Y005334D01*
X006395Y004966D01*
X006395Y005075D02*
X010505Y005075D01*
X010505Y005174D02*
X006395Y005174D01*
X006395Y005272D02*
X010505Y005272D01*
X010541Y005371D02*
X006359Y005371D01*
X006261Y005469D02*
X010639Y005469D01*
X010738Y005568D02*
X006162Y005568D01*
X005738Y005568D02*
X005162Y005568D01*
X005134Y005595D02*
X004766Y005595D01*
X004505Y005334D01*
X004505Y004966D01*
X004766Y004705D01*
X005134Y004705D01*
X005395Y004966D01*
X005395Y005334D01*
X005134Y005595D01*
X005261Y005469D02*
X005639Y005469D01*
X005541Y005371D02*
X005359Y005371D01*
X005395Y005272D02*
X005505Y005272D01*
X005505Y005174D02*
X005395Y005174D01*
X005395Y005075D02*
X005505Y005075D01*
X005505Y004977D02*
X005395Y004977D01*
X005308Y004878D02*
X005592Y004878D01*
X005691Y004780D02*
X005209Y004780D01*
X004691Y004780D02*
X004209Y004780D01*
X004308Y004878D02*
X004592Y004878D01*
X004505Y004977D02*
X004395Y004977D01*
X004395Y004966D02*
X004134Y004705D01*
X003766Y004705D01*
X003505Y004966D01*
X003505Y005334D01*
X003766Y005595D01*
X004134Y005595D01*
X004395Y005334D01*
X004395Y004966D01*
X004395Y005075D02*
X004505Y005075D01*
X004505Y005174D02*
X004395Y005174D01*
X004395Y005272D02*
X004505Y005272D01*
X004541Y005371D02*
X004359Y005371D01*
X004261Y005469D02*
X004639Y005469D01*
X004738Y005568D02*
X004162Y005568D01*
X003738Y005568D02*
X003162Y005568D01*
X003134Y005595D02*
X002766Y005595D01*
X002505Y005334D01*
X002505Y004966D01*
X002766Y004705D01*
X003134Y004705D01*
X003395Y004966D01*
X003395Y005334D01*
X003134Y005595D01*
X003261Y005469D02*
X003639Y005469D01*
X003541Y005371D02*
X003359Y005371D01*
X003395Y005272D02*
X003505Y005272D01*
X003505Y005174D02*
X003395Y005174D01*
X003395Y005075D02*
X003505Y005075D01*
X003505Y004977D02*
X003395Y004977D01*
X003308Y004878D02*
X003592Y004878D01*
X003691Y004780D02*
X003209Y004780D01*
X002691Y004780D02*
X002209Y004780D01*
X002308Y004878D02*
X002592Y004878D01*
X002505Y004977D02*
X002395Y004977D01*
X002395Y004966D02*
X002134Y004705D01*
X001766Y004705D01*
X001505Y004966D01*
X001505Y005334D01*
X001766Y005595D01*
X002134Y005595D01*
X002395Y005334D01*
X002395Y004966D01*
X002395Y005075D02*
X002505Y005075D01*
X002505Y005174D02*
X002395Y005174D01*
X002395Y005272D02*
X002505Y005272D01*
X002541Y005371D02*
X002359Y005371D01*
X002261Y005469D02*
X002639Y005469D01*
X002738Y005568D02*
X002162Y005568D01*
X001738Y005568D02*
X001162Y005568D01*
X001134Y005595D02*
X000766Y005595D01*
X000505Y005334D01*
X000505Y004966D01*
X000766Y004705D01*
X001134Y004705D01*
X001395Y004966D01*
X001395Y005334D01*
X001134Y005595D01*
X001261Y005469D02*
X001639Y005469D01*
X001541Y005371D02*
X001359Y005371D01*
X001395Y005272D02*
X001505Y005272D01*
X001505Y005174D02*
X001395Y005174D01*
X001395Y005075D02*
X001505Y005075D01*
X001505Y004977D02*
X001395Y004977D01*
X001308Y004878D02*
X001592Y004878D01*
X001691Y004780D02*
X001209Y004780D01*
X000691Y004780D02*
X000300Y004780D01*
X000300Y004878D02*
X000592Y004878D01*
X000505Y004977D02*
X000300Y004977D01*
X000300Y005075D02*
X000505Y005075D01*
X000505Y005174D02*
X000300Y005174D01*
X000300Y005272D02*
X000505Y005272D01*
X000541Y005371D02*
X000300Y005371D01*
X000300Y005469D02*
X000639Y005469D01*
X000738Y005568D02*
X000300Y005568D01*
X013975Y002219D02*
X014425Y002219D01*
X014365Y002120D02*
X014035Y002120D01*
X014035Y002022D02*
X014365Y002022D01*
X014365Y001923D02*
X014035Y001923D01*
X014035Y001825D02*
X014365Y001825D01*
X014365Y001726D02*
X014035Y001726D01*
X014035Y001628D02*
X014365Y001628D01*
X014378Y001529D02*
X014022Y001529D01*
X015361Y001529D02*
X015735Y001529D01*
X015636Y001628D02*
X015374Y001628D01*
X016267Y001431D02*
X016700Y001431D01*
X016700Y001529D02*
X016365Y001529D01*
X016464Y001628D02*
X016700Y001628D01*
X016700Y001726D02*
X016500Y001726D01*
X016500Y001825D02*
X016700Y001825D01*
X016700Y001923D02*
X016500Y001923D01*
X016500Y002022D02*
X016700Y002022D01*
X016700Y002120D02*
X016416Y002120D01*
X016318Y002219D02*
X016700Y002219D01*
X015782Y002219D02*
X015313Y002219D01*
X015374Y002120D02*
X015684Y002120D01*
X014701Y002416D02*
X014601Y002416D01*
X014601Y002514D02*
X014701Y002514D01*
X014701Y002613D02*
X014601Y002613D01*
X014601Y002711D02*
X014701Y002711D01*
X015116Y002711D02*
X015600Y002711D01*
X015651Y002613D02*
X015116Y002613D01*
X016000Y002613D02*
X016100Y002613D01*
X016100Y002711D02*
X016000Y002711D01*
X014186Y002711D02*
X014014Y002711D01*
X014014Y002613D02*
X014186Y002613D01*
X014186Y002514D02*
X014014Y002514D01*
X013996Y002416D02*
X014209Y002416D01*
D17*
X012750Y002550D03*
X011550Y002950D03*
X011550Y002100D03*
X012550Y001500D03*
X010300Y001250D03*
X008700Y001750D03*
X009800Y001950D03*
X008700Y002650D03*
X007200Y002650D03*
X007150Y002150D03*
X005050Y001650D03*
X004050Y002950D03*
X003950Y003750D03*
X006200Y003150D03*
X009000Y004000D03*
X010050Y003985D03*
X010950Y004000D03*
D18*
X013599Y003799D02*
X013549Y002850D01*
X013531Y002832D01*
X013531Y001850D01*
X014869Y001850D02*
X016050Y001850D01*
X013549Y002850D02*
X013050Y002850D01*
X012750Y002550D01*
X013599Y003799D02*
X014950Y005150D01*
D19*
X015999Y002901D02*
X016050Y002850D01*
M02*
