%
M48
M72
T01C0.0130
T02C0.0315
T03C0.0394
T04C0.0400
%
T01
X5050Y1650
X7150Y2150
X7200Y2650
X6200Y3150
X4050Y2950
X3950Y3750
X8700Y2650
X9800Y1950
X8700Y1750
X10300Y1250
X12550Y1500
X11550Y2100
X12750Y2550
X11550Y2950
X10950Y4000
X10050Y3985
X9000Y4000
T02
X5550Y2150
X4550Y2150
T03
X4950Y5150
X5950Y5150
X3950Y5150
X2950Y5150
X1950Y5150
X950Y5150
X10950Y5150
X11950Y5150
X12950Y5150
X13950Y5150
X14950Y5150
X15950Y5150
T04
X16050Y2850
X16050Y1850
X16050Y850
M30
